<svg xmlns="http://www.w3.org/2000/svg" xmlns:xlink="http://www.w3.org/1999/xlink" width="500" zoomAndPan="magnify" viewBox="0 0 375 374.999991" height="500" preserveAspectRatio="xMidYMid meet" version="1.2"><defs><clipPath id="eef57a722d"><path d="M 71 160 L 107 160 L 107 209 L 71 209 Z M 71 160 "/></clipPath><clipPath id="d86611a422"><path d="M 94.550781 157.058594 L 110.03125 166.171875 L 83.40625 211.40625 L 67.921875 202.292969 Z M 94.550781 157.058594 "/></clipPath><clipPath id="96cde06811"><path d="M 102.292969 161.613281 C 104.34375 162.820312 105.832031 164.796875 106.429688 167.101562 C 107.027344 169.410156 106.683594 171.859375 105.476562 173.910156 L 87.972656 203.644531 C 86.765625 205.699219 84.789062 207.1875 82.484375 207.785156 C 80.179688 208.382812 77.730469 208.039062 75.675781 206.828125 C 73.621094 205.621094 72.132812 203.648438 71.535156 201.339844 C 70.941406 199.035156 71.28125 196.585938 72.492188 194.53125 L 89.996094 164.796875 C 91.203125 162.746094 93.175781 161.257812 95.484375 160.660156 C 97.789062 160.0625 100.238281 160.40625 102.292969 161.613281 Z M 102.292969 161.613281 "/></clipPath><clipPath id="00b6369fea"><path d="M 53.066406 160.324219 L 71.574219 160.324219 L 71.574219 178.832031 L 53.066406 178.832031 Z M 53.066406 160.324219 "/></clipPath><clipPath id="97614c8d7c"><path d="M 62.320312 160.324219 C 57.207031 160.324219 53.066406 164.46875 53.066406 169.578125 C 53.066406 174.691406 57.207031 178.832031 62.320312 178.832031 C 67.429688 178.832031 71.574219 174.691406 71.574219 169.578125 C 71.574219 164.46875 67.429688 160.324219 62.320312 160.324219 Z M 62.320312 160.324219 "/></clipPath></defs><g id="dc22c511d3"><g clip-rule="nonzero" clip-path="url(#eef57a722d)"><g clip-rule="nonzero" clip-path="url(#d86611a422)"><g clip-rule="nonzero" clip-path="url(#96cde06811)"><path style=" stroke:none;fill-rule:nonzero;fill:#1b17ff;fill-opacity:1;" d="M 94.550781 157.058594 L 110.03125 166.171875 L 83.40625 211.40625 L 67.921875 202.292969 Z M 94.550781 157.058594 "/></g></g></g><g clip-rule="nonzero" clip-path="url(#00b6369fea)"><g clip-rule="nonzero" clip-path="url(#97614c8d7c)"><path style=" stroke:none;fill-rule:nonzero;fill:#cb6ce6;fill-opacity:1;" d="M 53.066406 160.324219 L 71.574219 160.324219 L 71.574219 178.832031 L 53.066406 178.832031 Z M 53.066406 160.324219 "/></g></g><g style="fill:#1800ad;fill-opacity:1;"><g transform="translate(120.086709, 182.808768)"><path style="stroke:none" d="M 11.484375 0.546875 C 9.753906 0.546875 8.253906 0.316406 6.984375 -0.140625 C 5.710938 -0.597656 4.664062 -1.207031 3.84375 -1.96875 C 3.019531 -2.738281 2.410156 -3.597656 2.015625 -4.546875 C 1.617188 -5.503906 1.421875 -6.46875 1.421875 -7.4375 L 4.75 -7.4375 C 4.75 -6.539062 5.015625 -5.703125 5.546875 -4.921875 C 6.085938 -4.140625 6.859375 -3.507812 7.859375 -3.03125 C 8.859375 -2.5625 10.0625 -2.328125 11.46875 -2.328125 C 13.65625 -2.328125 15.332031 -2.722656 16.5 -3.515625 C 17.675781 -4.316406 18.265625 -5.507812 18.265625 -7.09375 C 18.265625 -8.101562 17.972656 -8.914062 17.390625 -9.53125 C 16.804688 -10.144531 16.007812 -10.625 15 -10.96875 C 13.988281 -11.3125 12.84375 -11.578125 11.5625 -11.765625 C 10.707031 -11.910156 9.832031 -12.09375 8.9375 -12.3125 C 8.050781 -12.53125 7.195312 -12.816406 6.375 -13.171875 C 5.5625 -13.523438 4.828125 -13.960938 4.171875 -14.484375 C 3.523438 -15.003906 3.015625 -15.644531 2.640625 -16.40625 C 2.265625 -17.164062 2.078125 -18.0625 2.078125 -19.09375 C 2.078125 -20.050781 2.25 -20.957031 2.59375 -21.8125 C 2.9375 -22.675781 3.476562 -23.4375 4.21875 -24.09375 C 4.96875 -24.757812 5.929688 -25.28125 7.109375 -25.65625 C 8.285156 -26.03125 9.707031 -26.21875 11.375 -26.21875 C 13.382812 -26.21875 15.078125 -25.90625 16.453125 -25.28125 C 17.828125 -24.664062 18.863281 -23.8125 19.5625 -22.71875 C 20.269531 -21.625 20.625 -20.359375 20.625 -18.921875 L 17.265625 -18.921875 C 17.265625 -19.773438 17.035156 -20.53125 16.578125 -21.1875 C 16.128906 -21.84375 15.460938 -22.351562 14.578125 -22.71875 C 13.703125 -23.09375 12.625 -23.28125 11.34375 -23.28125 C 10.1875 -23.28125 9.222656 -23.160156 8.453125 -22.921875 C 7.679688 -22.679688 7.078125 -22.363281 6.640625 -21.96875 C 6.203125 -21.570312 5.890625 -21.125 5.703125 -20.625 C 5.515625 -20.125 5.421875 -19.609375 5.421875 -19.078125 C 5.421875 -18.179688 5.695312 -17.441406 6.25 -16.859375 C 6.8125 -16.273438 7.625 -15.804688 8.6875 -15.453125 C 9.757812 -15.097656 11.066406 -14.816406 12.609375 -14.609375 C 13.460938 -14.460938 14.316406 -14.273438 15.171875 -14.046875 C 16.035156 -13.828125 16.851562 -13.535156 17.625 -13.171875 C 18.40625 -12.816406 19.097656 -12.363281 19.703125 -11.8125 C 20.304688 -11.269531 20.78125 -10.609375 21.125 -9.828125 C 21.46875 -9.054688 21.640625 -8.144531 21.640625 -7.09375 C 21.640625 -5.5 21.226562 -4.128906 20.40625 -2.984375 C 19.59375 -1.835938 18.425781 -0.960938 16.90625 -0.359375 C 15.394531 0.242188 13.585938 0.546875 11.484375 0.546875 Z M 11.484375 0.546875 "/></g></g><g style="fill:#1800ad;fill-opacity:1;"><g transform="translate(140.804233, 182.808768)"><path style="stroke:none" d="M 6.359375 0 L 3.109375 0 L 3.109375 -26.609375 L 6.359375 -26.609375 Z M 6.359375 0 "/></g></g><g style="fill:#1800ad;fill-opacity:1;"><g transform="translate(148.032858, 182.808768)"><path style="stroke:none" d="M 11.484375 0.546875 C 10.066406 0.546875 8.75 0.285156 7.53125 -0.234375 C 6.320312 -0.753906 5.265625 -1.476562 4.359375 -2.40625 C 3.453125 -3.34375 2.742188 -4.425781 2.234375 -5.65625 C 1.734375 -6.894531 1.484375 -8.21875 1.484375 -9.625 C 1.484375 -11.03125 1.734375 -12.347656 2.234375 -13.578125 C 2.742188 -14.804688 3.445312 -15.882812 4.34375 -16.8125 C 5.25 -17.738281 6.304688 -18.46875 7.515625 -19 C 8.734375 -19.53125 10.054688 -19.796875 11.484375 -19.796875 C 12.921875 -19.796875 14.25 -19.53125 15.46875 -19 C 16.6875 -18.476562 17.75 -17.753906 18.65625 -16.828125 C 19.5625 -15.898438 20.265625 -14.816406 20.765625 -13.578125 C 21.273438 -12.347656 21.53125 -11.03125 21.53125 -9.625 C 21.53125 -8.21875 21.273438 -6.894531 20.765625 -5.65625 C 20.265625 -4.425781 19.5625 -3.34375 18.65625 -2.40625 C 17.75 -1.476562 16.6875 -0.753906 15.46875 -0.234375 C 14.25 0.285156 12.921875 0.546875 11.484375 0.546875 Z M 11.53125 -2.515625 C 12.488281 -2.515625 13.375 -2.6875 14.1875 -3.03125 C 15.007812 -3.382812 15.726562 -3.878906 16.34375 -4.515625 C 16.957031 -5.160156 17.429688 -5.914062 17.765625 -6.78125 C 18.109375 -7.65625 18.28125 -8.601562 18.28125 -9.625 C 18.28125 -10.644531 18.109375 -11.582031 17.765625 -12.4375 C 17.429688 -13.300781 16.957031 -14.050781 16.34375 -14.6875 C 15.726562 -15.332031 15.007812 -15.832031 14.1875 -16.1875 C 13.375 -16.550781 12.488281 -16.734375 11.53125 -16.734375 C 10.570312 -16.734375 9.679688 -16.550781 8.859375 -16.1875 C 8.035156 -15.832031 7.316406 -15.332031 6.703125 -14.6875 C 6.085938 -14.050781 5.601562 -13.300781 5.25 -12.4375 C 4.90625 -11.582031 4.734375 -10.644531 4.734375 -9.625 C 4.734375 -8.601562 4.90625 -7.65625 5.25 -6.78125 C 5.601562 -5.914062 6.085938 -5.160156 6.703125 -4.515625 C 7.316406 -3.878906 8.035156 -3.382812 8.859375 -3.03125 C 9.679688 -2.6875 10.570312 -2.515625 11.53125 -2.515625 Z M 11.53125 -2.515625 "/></g></g><g style="fill:#1800ad;fill-opacity:1;"><g transform="translate(168.806973, 182.808768)"><path style="stroke:none" d="M 9.84375 0 L 6.875 0 L 0.25 -19.25 L 3.734375 -19.25 L 8.296875 -5.34375 L 8.65625 -4.1875 L 8.703125 -4.1875 L 9.078125 -5.328125 L 13.453125 -19.25 L 15.9375 -19.25 L 20.1875 -5.5625 L 20.625 -4.1875 L 20.671875 -4.1875 L 21.1875 -5.625 L 25.65625 -19.25 L 29.09375 -19.25 L 22.46875 0 L 19.421875 0 L 14.65625 -14.421875 L 14.640625 -14.421875 Z M 9.84375 0 "/></g></g><g style="fill:#1800ad;fill-opacity:1;"><g transform="translate(195.901065, 182.808768)"><path style="stroke:none" d="M 13.671875 0.546875 C 12.617188 0.546875 11.609375 0.359375 10.640625 -0.015625 C 9.679688 -0.390625 8.820312 -0.921875 8.0625 -1.609375 C 7.300781 -2.304688 6.6875 -3.132812 6.21875 -4.09375 L 6.21875 0 L 3.109375 0 L 3.109375 -26.5625 L 6.359375 -26.5625 L 6.359375 -17.828125 L 6.296875 -15.1875 C 6.722656 -16.050781 7.296875 -16.828125 8.015625 -17.515625 C 8.742188 -18.210938 9.585938 -18.757812 10.546875 -19.15625 C 11.503906 -19.5625 12.535156 -19.765625 13.640625 -19.765625 C 14.992188 -19.765625 16.242188 -19.503906 17.390625 -18.984375 C 18.546875 -18.460938 19.554688 -17.738281 20.421875 -16.8125 C 21.285156 -15.882812 21.953125 -14.804688 22.421875 -13.578125 C 22.890625 -12.347656 23.125 -11.03125 23.125 -9.625 C 23.125 -8.21875 22.882812 -6.894531 22.40625 -5.65625 C 21.9375 -4.425781 21.269531 -3.34375 20.40625 -2.40625 C 19.550781 -1.476562 18.550781 -0.753906 17.40625 -0.234375 C 16.269531 0.285156 15.023438 0.546875 13.671875 0.546875 Z M 13.109375 -2.46875 C 14.046875 -2.46875 14.921875 -2.640625 15.734375 -2.984375 C 16.554688 -3.335938 17.273438 -3.832031 17.890625 -4.46875 C 18.515625 -5.101562 19.003906 -5.851562 19.359375 -6.71875 C 19.722656 -7.59375 19.90625 -8.5625 19.90625 -9.625 C 19.90625 -10.664062 19.726562 -11.617188 19.375 -12.484375 C 19.019531 -13.359375 18.53125 -14.113281 17.90625 -14.75 C 17.289062 -15.382812 16.570312 -15.875 15.75 -16.21875 C 14.9375 -16.570312 14.054688 -16.75 13.109375 -16.75 C 12.171875 -16.75 11.289062 -16.566406 10.46875 -16.203125 C 9.65625 -15.835938 8.9375 -15.328125 8.3125 -14.671875 C 7.695312 -14.023438 7.210938 -13.269531 6.859375 -12.40625 C 6.515625 -11.539062 6.34375 -10.613281 6.34375 -9.625 C 6.34375 -8.601562 6.515625 -7.65625 6.859375 -6.78125 C 7.210938 -5.90625 7.703125 -5.144531 8.328125 -4.5 C 8.960938 -3.863281 9.6875 -3.363281 10.5 -3 C 11.320312 -2.644531 12.191406 -2.46875 13.109375 -2.46875 Z M 13.109375 -2.46875 "/></g></g><g style="fill:#1800ad;fill-opacity:1;"><g transform="translate(218.731535, 182.808768)"><path style="stroke:none" d="M 6.375 0 L 3.109375 0 L 3.109375 -19.25 L 6.25 -19.25 L 6.25 -14.9375 C 6.726562 -16.269531 7.472656 -17.320312 8.484375 -18.09375 C 9.492188 -18.863281 10.695312 -19.25 12.09375 -19.25 L 13.96875 -19.25 L 13.96875 -16.390625 L 12.265625 -16.390625 C 11.140625 -16.390625 10.128906 -16.097656 9.234375 -15.515625 C 8.347656 -14.941406 7.648438 -14.109375 7.140625 -13.015625 C 6.628906 -11.921875 6.375 -10.601562 6.375 -9.0625 Z M 6.375 0 "/></g></g><g style="fill:#1800ad;fill-opacity:1;"><g transform="translate(231.12933, 182.808768)"><path style="stroke:none" d="M 11.484375 0.546875 C 10.066406 0.546875 8.75 0.285156 7.53125 -0.234375 C 6.320312 -0.753906 5.265625 -1.476562 4.359375 -2.40625 C 3.453125 -3.34375 2.742188 -4.425781 2.234375 -5.65625 C 1.734375 -6.894531 1.484375 -8.21875 1.484375 -9.625 C 1.484375 -11.03125 1.734375 -12.347656 2.234375 -13.578125 C 2.742188 -14.804688 3.445312 -15.882812 4.34375 -16.8125 C 5.25 -17.738281 6.304688 -18.46875 7.515625 -19 C 8.734375 -19.53125 10.054688 -19.796875 11.484375 -19.796875 C 12.921875 -19.796875 14.25 -19.53125 15.46875 -19 C 16.6875 -18.476562 17.75 -17.753906 18.65625 -16.828125 C 19.5625 -15.898438 20.265625 -14.816406 20.765625 -13.578125 C 21.273438 -12.347656 21.53125 -11.03125 21.53125 -9.625 C 21.53125 -8.21875 21.273438 -6.894531 20.765625 -5.65625 C 20.265625 -4.425781 19.5625 -3.34375 18.65625 -2.40625 C 17.75 -1.476562 16.6875 -0.753906 15.46875 -0.234375 C 14.25 0.285156 12.921875 0.546875 11.484375 0.546875 Z M 11.53125 -2.515625 C 12.488281 -2.515625 13.375 -2.6875 14.1875 -3.03125 C 15.007812 -3.382812 15.726562 -3.878906 16.34375 -4.515625 C 16.957031 -5.160156 17.429688 -5.914062 17.765625 -6.78125 C 18.109375 -7.65625 18.28125 -8.601562 18.28125 -9.625 C 18.28125 -10.644531 18.109375 -11.582031 17.765625 -12.4375 C 17.429688 -13.300781 16.957031 -14.050781 16.34375 -14.6875 C 15.726562 -15.332031 15.007812 -15.832031 14.1875 -16.1875 C 13.375 -16.550781 12.488281 -16.734375 11.53125 -16.734375 C 10.570312 -16.734375 9.679688 -16.550781 8.859375 -16.1875 C 8.035156 -15.832031 7.316406 -15.332031 6.703125 -14.6875 C 6.085938 -14.050781 5.601562 -13.300781 5.25 -12.4375 C 4.90625 -11.582031 4.734375 -10.644531 4.734375 -9.625 C 4.734375 -8.601562 4.90625 -7.65625 5.25 -6.78125 C 5.601562 -5.914062 6.085938 -5.160156 6.703125 -4.515625 C 7.316406 -3.878906 8.035156 -3.382812 8.859375 -3.03125 C 9.679688 -2.6875 10.570312 -2.515625 11.53125 -2.515625 Z M 11.53125 -2.515625 "/></g></g><g style="fill:#cb6ce6;fill-opacity:1;"><g transform="translate(120.086709, 215.058766)"><path style="stroke:none" d="M 11.734375 0 L 8.578125 0 L 8.578125 -21.5 L 0.875 -21.5 L 0.875 -24.34375 L 19.453125 -24.34375 L 19.453125 -21.5 L 11.734375 -21.5 Z M 11.734375 0 "/></g></g><g style="fill:#cb6ce6;fill-opacity:1;"><g transform="translate(138.304969, 215.058766)"><path style="stroke:none" d="M 19.71875 -9.578125 C 19.71875 -9.421875 19.710938 -9.253906 19.703125 -9.078125 C 19.703125 -8.910156 19.691406 -8.660156 19.671875 -8.328125 L 4.53125 -8.328125 C 4.65625 -7.109375 5.007812 -6.050781 5.59375 -5.15625 C 6.1875 -4.257812 6.921875 -3.566406 7.796875 -3.078125 C 8.679688 -2.597656 9.625 -2.359375 10.625 -2.359375 C 11.851562 -2.359375 12.90625 -2.625 13.78125 -3.15625 C 14.65625 -3.6875 15.296875 -4.46875 15.703125 -5.5 L 19.15625 -5.5 C 18.882812 -4.65625 18.488281 -3.867188 17.96875 -3.140625 C 17.457031 -2.421875 16.832031 -1.785156 16.09375 -1.234375 C 15.363281 -0.691406 14.539062 -0.269531 13.625 0.03125 C 12.71875 0.34375 11.742188 0.5 10.703125 0.5 C 9.378906 0.5 8.148438 0.253906 7.015625 -0.234375 C 5.890625 -0.734375 4.90625 -1.425781 4.0625 -2.3125 C 3.226562 -3.195312 2.578125 -4.21875 2.109375 -5.375 C 1.640625 -6.539062 1.40625 -7.789062 1.40625 -9.125 C 1.40625 -10.46875 1.640625 -11.71875 2.109375 -12.875 C 2.578125 -14.039062 3.226562 -15.0625 4.0625 -15.9375 C 4.90625 -16.820312 5.890625 -17.515625 7.015625 -18.015625 C 8.148438 -18.523438 9.378906 -18.78125 10.703125 -18.78125 C 12.015625 -18.78125 13.222656 -18.535156 14.328125 -18.046875 C 15.429688 -17.554688 16.382812 -16.878906 17.1875 -16.015625 C 18 -15.160156 18.625 -14.179688 19.0625 -13.078125 C 19.5 -11.972656 19.71875 -10.804688 19.71875 -9.578125 Z M 4.671875 -11.046875 L 16.578125 -11.046875 C 16.523438 -11.691406 16.332031 -12.304688 16 -12.890625 C 15.675781 -13.472656 15.242188 -13.988281 14.703125 -14.4375 C 14.171875 -14.882812 13.554688 -15.234375 12.859375 -15.484375 C 12.160156 -15.742188 11.425781 -15.875 10.65625 -15.875 C 9.75 -15.875 8.878906 -15.6875 8.046875 -15.3125 C 7.222656 -14.945312 6.515625 -14.40625 5.921875 -13.6875 C 5.328125 -12.976562 4.910156 -12.097656 4.671875 -11.046875 Z M 4.671875 -11.046875 "/></g></g><g style="fill:#cb6ce6;fill-opacity:1;"><g transform="translate(157.024229, 215.058766)"><path style="stroke:none" d="M 10.734375 0.515625 C 9.410156 0.515625 8.1875 0.265625 7.0625 -0.234375 C 5.9375 -0.734375 4.945312 -1.425781 4.09375 -2.3125 C 3.25 -3.195312 2.585938 -4.21875 2.109375 -5.375 C 1.640625 -6.539062 1.40625 -7.789062 1.40625 -9.125 C 1.40625 -10.46875 1.640625 -11.71875 2.109375 -12.875 C 2.585938 -14.039062 3.25 -15.0625 4.09375 -15.9375 C 4.945312 -16.820312 5.9375 -17.515625 7.0625 -18.015625 C 8.1875 -18.523438 9.410156 -18.78125 10.734375 -18.78125 C 12.191406 -18.78125 13.507812 -18.5 14.6875 -17.9375 C 15.875 -17.375 16.878906 -16.601562 17.703125 -15.625 C 18.535156 -14.65625 19.128906 -13.539062 19.484375 -12.28125 L 16.328125 -12.28125 C 15.847656 -13.457031 15.109375 -14.347656 14.109375 -14.953125 C 13.117188 -15.566406 12 -15.875 10.75 -15.875 C 9.957031 -15.875 9.1875 -15.71875 8.4375 -15.40625 C 7.695312 -15.09375 7.023438 -14.644531 6.421875 -14.0625 C 5.828125 -13.476562 5.359375 -12.769531 5.015625 -11.9375 C 4.671875 -11.101562 4.5 -10.164062 4.5 -9.125 C 4.5 -8.070312 4.671875 -7.128906 5.015625 -6.296875 C 5.367188 -5.460938 5.84375 -4.753906 6.4375 -4.171875 C 7.039062 -3.585938 7.710938 -3.140625 8.453125 -2.828125 C 9.203125 -2.515625 9.96875 -2.359375 10.75 -2.359375 C 11.976562 -2.359375 13.09375 -2.671875 14.09375 -3.296875 C 15.101562 -3.921875 15.847656 -4.863281 16.328125 -6.125 L 19.46875 -6.125 C 19.125 -4.8125 18.539062 -3.65625 17.71875 -2.65625 C 16.894531 -1.65625 15.882812 -0.875 14.6875 -0.3125 C 13.5 0.238281 12.179688 0.515625 10.734375 0.515625 Z M 10.734375 0.515625 "/></g></g><g style="fill:#cb6ce6;fill-opacity:1;"><g transform="translate(175.528775, 215.058766)"><path style="stroke:none" d="M 6.03125 0 L 2.953125 0 L 2.953125 -25.203125 L 6.03125 -25.203125 L 6.03125 -16.734375 L 5.984375 -14.78125 C 6.347656 -15.570312 6.851562 -16.265625 7.5 -16.859375 C 8.144531 -17.460938 8.90625 -17.929688 9.78125 -18.265625 C 10.65625 -18.609375 11.609375 -18.78125 12.640625 -18.78125 C 15.054688 -18.78125 16.890625 -18.03125 18.140625 -16.53125 C 19.398438 -15.03125 20.03125 -12.816406 20.03125 -9.890625 L 20.03125 0 L 16.953125 0 L 16.953125 -9.84375 C 16.953125 -11.945312 16.5 -13.476562 15.59375 -14.4375 C 14.6875 -15.40625 13.4375 -15.890625 11.84375 -15.890625 C 11.082031 -15.890625 10.351562 -15.738281 9.65625 -15.4375 C 8.957031 -15.132812 8.335938 -14.703125 7.796875 -14.140625 C 7.253906 -13.578125 6.820312 -12.910156 6.5 -12.140625 C 6.1875 -11.367188 6.03125 -10.519531 6.03125 -9.59375 Z M 6.03125 0 "/></g></g><g style="fill:#cb6ce6;fill-opacity:1;"><g transform="translate(196.162563, 215.058766)"><path style="stroke:none" d="M 6.03125 0 L 2.953125 0 L 2.953125 -18.25 L 5.90625 -18.25 L 5.90625 -14.734375 C 6.25 -15.515625 6.75 -16.207031 7.40625 -16.8125 C 8.070312 -17.425781 8.851562 -17.90625 9.75 -18.25 C 10.644531 -18.601562 11.609375 -18.78125 12.640625 -18.78125 C 15.054688 -18.78125 16.890625 -18.03125 18.140625 -16.53125 C 19.398438 -15.03125 20.03125 -12.816406 20.03125 -9.890625 L 20.03125 0 L 16.953125 0 L 16.953125 -9.84375 C 16.953125 -11.945312 16.5 -13.476562 15.59375 -14.4375 C 14.6875 -15.40625 13.4375 -15.890625 11.84375 -15.890625 C 11.082031 -15.890625 10.351562 -15.742188 9.65625 -15.453125 C 8.957031 -15.171875 8.335938 -14.753906 7.796875 -14.203125 C 7.253906 -13.660156 6.820312 -13 6.5 -12.21875 C 6.1875 -11.445312 6.03125 -10.570312 6.03125 -9.59375 Z M 6.03125 0 "/></g></g><g style="fill:#cb6ce6;fill-opacity:1;"><g transform="translate(216.796351, 215.058766)"><path style="stroke:none" d="M 10.90625 0.515625 C 9.550781 0.515625 8.296875 0.269531 7.140625 -0.21875 C 5.992188 -0.71875 4.988281 -1.40625 4.125 -2.28125 C 3.269531 -3.164062 2.601562 -4.191406 2.125 -5.359375 C 1.644531 -6.535156 1.40625 -7.789062 1.40625 -9.125 C 1.40625 -10.46875 1.644531 -11.71875 2.125 -12.875 C 2.601562 -14.039062 3.269531 -15.0625 4.125 -15.9375 C 4.976562 -16.820312 5.976562 -17.515625 7.125 -18.015625 C 8.28125 -18.523438 9.539062 -18.78125 10.90625 -18.78125 C 12.257812 -18.78125 13.515625 -18.53125 14.671875 -18.03125 C 15.828125 -17.539062 16.832031 -16.851562 17.6875 -15.96875 C 18.550781 -15.082031 19.222656 -14.054688 19.703125 -12.890625 C 20.179688 -11.722656 20.421875 -10.46875 20.421875 -9.125 C 20.421875 -7.789062 20.179688 -6.535156 19.703125 -5.359375 C 19.222656 -4.191406 18.550781 -3.164062 17.6875 -2.28125 C 16.832031 -1.40625 15.828125 -0.71875 14.671875 -0.21875 C 13.515625 0.269531 12.257812 0.515625 10.90625 0.515625 Z M 10.9375 -2.375 C 11.84375 -2.375 12.679688 -2.539062 13.453125 -2.875 C 14.234375 -3.21875 14.914062 -3.691406 15.5 -4.296875 C 16.082031 -4.898438 16.535156 -5.613281 16.859375 -6.4375 C 17.179688 -7.257812 17.34375 -8.15625 17.34375 -9.125 C 17.34375 -10.09375 17.179688 -10.984375 16.859375 -11.796875 C 16.535156 -12.617188 16.082031 -13.332031 15.5 -13.9375 C 14.914062 -14.550781 14.234375 -15.023438 13.453125 -15.359375 C 12.679688 -15.703125 11.84375 -15.875 10.9375 -15.875 C 10.03125 -15.875 9.1875 -15.703125 8.40625 -15.359375 C 7.625 -15.023438 6.941406 -14.550781 6.359375 -13.9375 C 5.773438 -13.332031 5.316406 -12.617188 4.984375 -11.796875 C 4.660156 -10.984375 4.5 -10.09375 4.5 -9.125 C 4.5 -8.15625 4.660156 -7.257812 4.984375 -6.4375 C 5.316406 -5.613281 5.773438 -4.898438 6.359375 -4.296875 C 6.941406 -3.691406 7.625 -3.21875 8.40625 -2.875 C 9.1875 -2.539062 10.03125 -2.375 10.9375 -2.375 Z M 10.9375 -2.375 "/></g></g><g style="fill:#cb6ce6;fill-opacity:1;"><g transform="translate(236.499711, 215.058766)"><path style="stroke:none" d="M 6.03125 0 L 2.953125 0 L 2.953125 -25.234375 L 6.03125 -25.234375 Z M 6.03125 0 "/></g></g><g style="fill:#cb6ce6;fill-opacity:1;"><g transform="translate(243.356015, 215.058766)"><path style="stroke:none" d="M 10.90625 0.515625 C 9.550781 0.515625 8.296875 0.269531 7.140625 -0.21875 C 5.992188 -0.71875 4.988281 -1.40625 4.125 -2.28125 C 3.269531 -3.164062 2.601562 -4.191406 2.125 -5.359375 C 1.644531 -6.535156 1.40625 -7.789062 1.40625 -9.125 C 1.40625 -10.46875 1.644531 -11.71875 2.125 -12.875 C 2.601562 -14.039062 3.269531 -15.0625 4.125 -15.9375 C 4.976562 -16.820312 5.976562 -17.515625 7.125 -18.015625 C 8.28125 -18.523438 9.539062 -18.78125 10.90625 -18.78125 C 12.257812 -18.78125 13.515625 -18.53125 14.671875 -18.03125 C 15.828125 -17.539062 16.832031 -16.851562 17.6875 -15.96875 C 18.550781 -15.082031 19.222656 -14.054688 19.703125 -12.890625 C 20.179688 -11.722656 20.421875 -10.46875 20.421875 -9.125 C 20.421875 -7.789062 20.179688 -6.535156 19.703125 -5.359375 C 19.222656 -4.191406 18.550781 -3.164062 17.6875 -2.28125 C 16.832031 -1.40625 15.828125 -0.71875 14.671875 -0.21875 C 13.515625 0.269531 12.257812 0.515625 10.90625 0.515625 Z M 10.9375 -2.375 C 11.84375 -2.375 12.679688 -2.539062 13.453125 -2.875 C 14.234375 -3.21875 14.914062 -3.691406 15.5 -4.296875 C 16.082031 -4.898438 16.535156 -5.613281 16.859375 -6.4375 C 17.179688 -7.257812 17.34375 -8.15625 17.34375 -9.125 C 17.34375 -10.09375 17.179688 -10.984375 16.859375 -11.796875 C 16.535156 -12.617188 16.082031 -13.332031 15.5 -13.9375 C 14.914062 -14.550781 14.234375 -15.023438 13.453125 -15.359375 C 12.679688 -15.703125 11.84375 -15.875 10.9375 -15.875 C 10.03125 -15.875 9.1875 -15.703125 8.40625 -15.359375 C 7.625 -15.023438 6.941406 -14.550781 6.359375 -13.9375 C 5.773438 -13.332031 5.316406 -12.617188 4.984375 -11.796875 C 4.660156 -10.984375 4.5 -10.09375 4.5 -9.125 C 4.5 -8.15625 4.660156 -7.257812 4.984375 -6.4375 C 5.316406 -5.613281 5.773438 -4.898438 6.359375 -4.296875 C 6.941406 -3.691406 7.625 -3.21875 8.40625 -2.875 C 9.1875 -2.539062 10.03125 -2.375 10.9375 -2.375 Z M 10.9375 -2.375 "/></g></g><g style="fill:#cb6ce6;fill-opacity:1;"><g transform="translate(263.059375, 215.058766)"><path style="stroke:none" d="M 10.953125 6.875 C 9.410156 6.875 8.097656 6.675781 7.015625 6.28125 C 5.929688 5.894531 5.039062 5.378906 4.34375 4.734375 C 3.644531 4.085938 3.117188 3.363281 2.765625 2.5625 C 2.421875 1.757812 2.226562 0.941406 2.1875 0.109375 L 5.09375 0.109375 C 5.21875 0.835938 5.484375 1.515625 5.890625 2.140625 C 6.304688 2.773438 6.921875 3.28125 7.734375 3.65625 C 8.554688 4.039062 9.628906 4.234375 10.953125 4.234375 C 12.128906 4.234375 13.132812 4.050781 13.96875 3.6875 C 14.800781 3.332031 15.472656 2.835938 15.984375 2.203125 C 16.492188 1.578125 16.867188 0.867188 17.109375 0.078125 C 17.347656 -0.703125 17.46875 -1.515625 17.46875 -2.359375 L 17.46875 -4.625 C 17.039062 -3.695312 16.46875 -2.914062 15.75 -2.28125 C 15.03125 -1.644531 14.210938 -1.160156 13.296875 -0.828125 C 12.390625 -0.503906 11.414062 -0.34375 10.375 -0.34375 C 9.09375 -0.34375 7.90625 -0.578125 6.8125 -1.046875 C 5.726562 -1.515625 4.78125 -2.171875 3.96875 -3.015625 C 3.15625 -3.859375 2.523438 -4.832031 2.078125 -5.9375 C 1.628906 -7.039062 1.40625 -8.21875 1.40625 -9.46875 C 1.40625 -10.71875 1.625 -11.898438 2.0625 -13.015625 C 2.507812 -14.128906 3.132812 -15.113281 3.9375 -15.96875 C 4.75 -16.832031 5.691406 -17.507812 6.765625 -18 C 7.847656 -18.5 9.023438 -18.75 10.296875 -18.75 C 11.460938 -18.75 12.515625 -18.550781 13.453125 -18.15625 C 14.398438 -17.757812 15.21875 -17.222656 15.90625 -16.546875 C 16.59375 -15.878906 17.113281 -15.144531 17.46875 -14.34375 L 17.46875 -18.25 L 20.421875 -18.25 L 20.421875 -2.453125 C 20.421875 -1.191406 20.226562 0 19.84375 1.125 C 19.457031 2.257812 18.875 3.253906 18.09375 4.109375 C 17.3125 4.972656 16.328125 5.648438 15.140625 6.140625 C 13.953125 6.628906 12.554688 6.875 10.953125 6.875 Z M 10.921875 -3.0625 C 11.816406 -3.0625 12.65625 -3.226562 13.4375 -3.5625 C 14.21875 -3.894531 14.898438 -4.351562 15.484375 -4.9375 C 16.066406 -5.53125 16.523438 -6.210938 16.859375 -6.984375 C 17.191406 -7.765625 17.359375 -8.59375 17.359375 -9.46875 C 17.359375 -10.34375 17.191406 -11.160156 16.859375 -11.921875 C 16.535156 -12.691406 16.078125 -13.375 15.484375 -13.96875 C 14.898438 -14.5625 14.21875 -15.023438 13.4375 -15.359375 C 12.664062 -15.703125 11.832031 -15.875 10.9375 -15.875 C 10.039062 -15.875 9.203125 -15.710938 8.421875 -15.390625 C 7.640625 -15.066406 6.953125 -14.613281 6.359375 -14.03125 C 5.773438 -13.457031 5.3125 -12.78125 4.96875 -12 C 4.632812 -11.226562 4.46875 -10.382812 4.46875 -9.46875 C 4.46875 -8.5625 4.632812 -7.71875 4.96875 -6.9375 C 5.3125 -6.164062 5.773438 -5.488281 6.359375 -4.90625 C 6.941406 -4.320312 7.625 -3.867188 8.40625 -3.546875 C 9.1875 -3.222656 10.023438 -3.0625 10.921875 -3.0625 Z M 10.921875 -3.0625 "/></g></g><g style="fill:#cb6ce6;fill-opacity:1;"><g transform="translate(284.30152, 215.058766)"><path style="stroke:none" d="M 4.46875 -21.8125 C 3.84375 -21.8125 3.335938 -22.003906 2.953125 -22.390625 C 2.578125 -22.773438 2.390625 -23.238281 2.390625 -23.78125 C 2.390625 -24.320312 2.578125 -24.78125 2.953125 -25.15625 C 3.335938 -25.539062 3.851562 -25.734375 4.5 -25.734375 C 5.15625 -25.734375 5.671875 -25.539062 6.046875 -25.15625 C 6.421875 -24.78125 6.609375 -24.320312 6.609375 -23.78125 C 6.609375 -23.238281 6.421875 -22.773438 6.046875 -22.390625 C 5.671875 -22.003906 5.144531 -21.8125 4.46875 -21.8125 Z M 6.03125 0 L 2.953125 0 L 2.953125 -18.25 L 6.03125 -18.25 Z M 6.03125 0 "/></g></g><g style="fill:#cb6ce6;fill-opacity:1;"><g transform="translate(291.157823, 215.058766)"><path style="stroke:none" d="M 19.71875 -9.578125 C 19.71875 -9.421875 19.710938 -9.253906 19.703125 -9.078125 C 19.703125 -8.910156 19.691406 -8.660156 19.671875 -8.328125 L 4.53125 -8.328125 C 4.65625 -7.109375 5.007812 -6.050781 5.59375 -5.15625 C 6.1875 -4.257812 6.921875 -3.566406 7.796875 -3.078125 C 8.679688 -2.597656 9.625 -2.359375 10.625 -2.359375 C 11.851562 -2.359375 12.90625 -2.625 13.78125 -3.15625 C 14.65625 -3.6875 15.296875 -4.46875 15.703125 -5.5 L 19.15625 -5.5 C 18.882812 -4.65625 18.488281 -3.867188 17.96875 -3.140625 C 17.457031 -2.421875 16.832031 -1.785156 16.09375 -1.234375 C 15.363281 -0.691406 14.539062 -0.269531 13.625 0.03125 C 12.71875 0.34375 11.742188 0.5 10.703125 0.5 C 9.378906 0.5 8.148438 0.253906 7.015625 -0.234375 C 5.890625 -0.734375 4.90625 -1.425781 4.0625 -2.3125 C 3.226562 -3.195312 2.578125 -4.21875 2.109375 -5.375 C 1.640625 -6.539062 1.40625 -7.789062 1.40625 -9.125 C 1.40625 -10.46875 1.640625 -11.71875 2.109375 -12.875 C 2.578125 -14.039062 3.226562 -15.0625 4.0625 -15.9375 C 4.90625 -16.820312 5.890625 -17.515625 7.015625 -18.015625 C 8.148438 -18.523438 9.378906 -18.78125 10.703125 -18.78125 C 12.015625 -18.78125 13.222656 -18.535156 14.328125 -18.046875 C 15.429688 -17.554688 16.382812 -16.878906 17.1875 -16.015625 C 18 -15.160156 18.625 -14.179688 19.0625 -13.078125 C 19.5 -11.972656 19.71875 -10.804688 19.71875 -9.578125 Z M 4.671875 -11.046875 L 16.578125 -11.046875 C 16.523438 -11.691406 16.332031 -12.304688 16 -12.890625 C 15.675781 -13.472656 15.242188 -13.988281 14.703125 -14.4375 C 14.171875 -14.882812 13.554688 -15.234375 12.859375 -15.484375 C 12.160156 -15.742188 11.425781 -15.875 10.65625 -15.875 C 9.75 -15.875 8.878906 -15.6875 8.046875 -15.3125 C 7.222656 -14.945312 6.515625 -14.40625 5.921875 -13.6875 C 5.328125 -12.976562 4.910156 -12.097656 4.671875 -11.046875 Z M 4.671875 -11.046875 "/></g></g><g style="fill:#cb6ce6;fill-opacity:1;"><g transform="translate(309.877084, 215.058766)"><path style="stroke:none" d="M 9.03125 0.515625 C 7.757812 0.515625 6.644531 0.34375 5.6875 0 C 4.738281 -0.332031 3.945312 -0.785156 3.3125 -1.359375 C 2.675781 -1.941406 2.195312 -2.597656 1.875 -3.328125 C 1.5625 -4.066406 1.40625 -4.828125 1.40625 -5.609375 L 4.390625 -5.578125 C 4.398438 -4.921875 4.585938 -4.316406 4.953125 -3.765625 C 5.316406 -3.222656 5.84375 -2.789062 6.53125 -2.46875 C 7.226562 -2.144531 8.078125 -1.984375 9.078125 -1.984375 C 10.460938 -1.984375 11.503906 -2.253906 12.203125 -2.796875 C 12.910156 -3.335938 13.265625 -4.070312 13.265625 -5 C 13.265625 -5.675781 13.078125 -6.207031 12.703125 -6.59375 C 12.335938 -6.976562 11.8125 -7.273438 11.125 -7.484375 C 10.4375 -7.691406 9.613281 -7.875 8.65625 -8.03125 C 7.8125 -8.164062 7.003906 -8.347656 6.234375 -8.578125 C 5.460938 -8.816406 4.78125 -9.140625 4.1875 -9.546875 C 3.59375 -9.953125 3.125 -10.46875 2.78125 -11.09375 C 2.4375 -11.726562 2.265625 -12.503906 2.265625 -13.421875 C 2.265625 -14.421875 2.503906 -15.320312 2.984375 -16.125 C 3.472656 -16.9375 4.203125 -17.582031 5.171875 -18.0625 C 6.148438 -18.539062 7.363281 -18.78125 8.8125 -18.78125 C 10.21875 -18.78125 11.441406 -18.539062 12.484375 -18.0625 C 13.535156 -17.59375 14.351562 -16.945312 14.9375 -16.125 C 15.53125 -15.300781 15.828125 -14.359375 15.828125 -13.296875 L 12.796875 -13.296875 C 12.742188 -14.171875 12.367188 -14.875 11.671875 -15.40625 C 10.972656 -15.9375 10.019531 -16.203125 8.8125 -16.203125 C 8.019531 -16.203125 7.363281 -16.078125 6.84375 -15.828125 C 6.332031 -15.585938 5.945312 -15.257812 5.6875 -14.84375 C 5.4375 -14.4375 5.3125 -13.988281 5.3125 -13.5 C 5.3125 -12.925781 5.4375 -12.453125 5.6875 -12.078125 C 5.945312 -11.710938 6.394531 -11.410156 7.03125 -11.171875 C 7.675781 -10.941406 8.566406 -10.734375 9.703125 -10.546875 C 10.535156 -10.410156 11.351562 -10.238281 12.15625 -10.03125 C 12.957031 -9.820312 13.675781 -9.523438 14.3125 -9.140625 C 14.945312 -8.765625 15.453125 -8.253906 15.828125 -7.609375 C 16.203125 -6.960938 16.390625 -6.144531 16.390625 -5.15625 C 16.390625 -3.914062 16.078125 -2.867188 15.453125 -2.015625 C 14.835938 -1.171875 13.976562 -0.535156 12.875 -0.109375 C 11.769531 0.304688 10.488281 0.515625 9.03125 0.515625 Z M 9.03125 0.515625 "/></g></g></g></svg>