<?xml version="1.0" encoding="UTF-8"?>
<svg version="1.1" xmlns="http://www.w3.org/2000/svg" width="500" height="500">
<path d="M0 0 C-0.125 1.6875 -0.125 1.6875 -1 4 C-1.928125 4.70125 -2.85625 5.4025 -3.8125 6.125 C-8.72077377 9.97899062 -10.19812711 15.89384402 -11.7109375 21.75390625 C-13.87917133 29.64327191 -17.71389375 35.15252511 -22.84765625 41.39306641 C-25.92439416 45.19976421 -27.86668808 47.90452208 -28 53 C-26.14565102 57.58133278 -23.24970174 59.62997403 -19 62 C-12.81315286 64.40599611 -7.7618954 64.37750849 -1.62109375 62.12890625 C8.7698407 57.42940694 17.39025757 48.89337059 23.6953125 39.46484375 C26.58604951 36.37322502 29.54243648 35.43060775 33.5 34.3125 C38.42549813 32.94103117 38.42549813 32.94103117 43.03125 30.79296875 C46.22204482 29.5077875 48.71042328 30.24778825 52 31 C63.88488822 36.94244411 74.5196387 46.92050132 85 55 C86.20269702 55.92243328 87.40575934 56.84439071 88.609375 57.765625 C97.0470453 64.23307787 105.43609651 70.76349959 113.81933594 77.30126953 C115.8589568 78.89012779 117.90177704 80.47477585 119.9453125 82.05859375 C125.71130451 86.54104706 131.32032945 91.11010467 136.71875 96.03515625 C139.42021356 98.36193051 142.25090804 100.45317261 145.125 102.5625 C159.04756735 112.8623585 159.04756735 112.8623585 160.40625 120.19140625 C160.69571226 127.51238929 158.46041841 133.18500767 154 139 C151.66999681 141.04140534 150.05151546 141.95605755 146.93188477 142.08642578 C141.57927562 141.69289352 137.33374902 140.08578394 132.75 137.3125 C132.08597168 136.92457275 131.42194336 136.53664551 130.73779297 136.13696289 C90.82403686 112.41222626 90.82403686 112.41222626 84.1875 95.125 C83.87619141 94.34125 83.56488281 93.5575 83.24414062 92.75 C82.48605158 90.83728302 81.74159544 88.91917207 81 87 C80.01 87 79.02 87 78 87 C78.90610626 89.71227806 79.82439254 92.41937819 80.75 95.125 C81.00265625 95.88554687 81.2553125 96.64609375 81.515625 97.4296875 C88.46340993 117.57826379 110.86121966 128.13333698 128.0390625 138.66796875 C129.98582378 139.99037034 131.52430752 141.16460747 133 143 C133.59343361 148.83543046 132.98618377 153.87477678 130 159 C124.8506625 165.15740887 119.21073471 166.62404154 111.5 167.3125 C104.01245788 166.64396945 98.21961659 163.15442623 92.16796875 158.9921875 C91.45071121 158.50726837 90.73345367 158.02234924 89.99446106 157.5227356 C88.48506734 156.49959055 86.97840033 155.47241238 85.47436523 154.44140625 C83.21044261 152.89071472 80.93717457 151.35459577 78.66210938 149.8203125 C71.13282296 144.71196653 63.88840176 139.50610719 56.99731445 133.55126953 C55.15823773 131.79553363 55.15823773 131.79553363 53 132 C53.84161092 137.75100797 58.66551476 140.6102921 63 144 C65.66651551 145.82403967 68.37639281 147.5392573 71.12890625 149.23046875 C75.06546314 151.6566732 78.89340761 154.23091885 82.71875 156.828125 C85.15459232 158.44042063 87.5946793 159.97703589 90.09375 161.484375 C90.7837207 161.91258545 91.47369141 162.3407959 92.18457031 162.78198242 C93.53623039 163.61997971 94.9000145 164.43880357 96.27636719 165.2355957 C98.140625 166.41015625 98.140625 166.41015625 101 169 C101.60209556 172.66876892 101.60368705 174.82473691 99.8984375 178.14453125 C96.5546441 181.80555633 94.08218363 184.20279472 89 185 C81.15691799 185.23911835 74.02292077 182.19384085 67 179 C66.13890625 178.63648438 65.2778125 178.27296875 64.390625 177.8984375 C61.79129547 176.46972801 60.52289377 175.56703352 59 173 C58.71757174 169.54206428 58.67124474 166.35532124 59.0300293 162.9128418 C59.37683592 158.92002128 59.13607614 156.63018436 56.63671875 153.5625 C54.28084392 151.01431592 54.28084392 151.01431592 52 150 C51.35546875 150.03480469 50.7109375 150.06960938 50.046875 150.10546875 C47.31271811 150.20311721 45.54042109 150.0599392 43 149 C41.02233971 146.10855471 39.72036452 143.18095999 38.33984375 139.96484375 C36.68977839 136.31353294 35.12146553 134.44655406 32 132 C26.89747564 130.29915855 22.11603742 130.21496199 17.1875 132.375 C11.38069266 135.58072272 6.78194467 140.4755982 2 145 C0.52877738 146.32139861 -0.94943527 147.63509698 -2.4375 148.9375 C-3.03433594 149.46214844 -3.63117188 149.98679688 -4.24609375 150.52734375 C-4.82488281 151.01332031 -5.40367187 151.49929688 -6 152 C-6.98419922 152.83144531 -6.98419922 152.83144531 -7.98828125 153.6796875 C-10.94953007 155.62318672 -13.55013942 155.19903042 -17 155 C-16.63194656 151.31946557 -16.31286991 148.53813624 -14.4375 145.3125 C-12.23881173 140.24595747 -12.09143999 135.42955464 -13 130 C-15.30132217 125.68781379 -18.45466849 122.80021194 -23 121 C-28.71213335 119.98605763 -33.87857349 119.65623927 -38.8984375 122.8359375 C-41.42059079 125.11572171 -43.72950833 127.47111282 -46 130 C-46.99412126 131.00584438 -47.99270635 132.00734724 -49 133 C-49.66 133.66 -50.32 134.32 -51 135 C-53.78973238 136.39486619 -55.90212434 136.18341436 -59 136 C-61.5 135.16479492 -61.5 135.16479492 -64 133.98046875 C-64.95543701 133.54025391 -65.91087402 133.10003906 -66.89526367 132.64648438 C-67.91982666 132.16501953 -68.94438965 131.68355469 -70 131.1875 C-81.17820979 126.08340181 -92.50136355 121.73087039 -104.07226562 117.61791992 C-105.88307617 116.97173706 -105.88307617 116.97173706 -107.73046875 116.3125 C-108.79676514 115.93738281 -109.86306152 115.56226563 -110.96166992 115.17578125 C-118.89382619 112.10617381 -118.89382619 112.10617381 -122 109 C-130.09244869 74.08258249 -117.56374272 35.12748544 -102 4 C-94.58882901 3.51135136 -88.27380547 5.32594781 -81.1875 7.375 C-53.59829008 15.24392248 -35.73211492 10.93024625 -9.08032227 1.67675781 C-5.92148061 0.64914262 -3.34242918 0 0 0 Z " fill="#434343" transform="translate(201,106)"/>
<path d="M0 0 C8.02257624 4.47833946 16.12717585 8.70216041 24.375 12.75 C34.55219261 17.76651295 44.86596001 22.88837794 53.890625 29.8359375 C57.76961864 32.03403389 59.67346875 31.80935453 64.0625 31.1875 C64.76681152 31.09098145 65.47112305 30.99446289 66.19677734 30.89501953 C74.9518579 29.58935703 83.60434041 27.57579567 92.22705078 25.59619141 C104.24638433 22.87771231 104.24638433 22.87771231 108.9375 23.5625 C117.4119963 30.78812316 119.61992142 45.16056384 120.9375 55.5625 C121.10572266 56.76519531 121.10572266 56.76519531 121.27734375 57.9921875 C123.31245202 75.44393789 121.85549747 93.17774443 119.9375 110.5625 C119.85209961 111.38733887 119.76669922 112.21217773 119.67871094 113.06201172 C118.65062821 122.98200211 118.65062821 122.98200211 117.9375 126.5625 C113.60589947 128.72830027 107.88275856 127.88131606 103.125 127.9375 C101.93583984 127.97488281 100.74667969 128.01226562 99.52148438 128.05078125 C90.71928469 128.13974228 90.71928469 128.13974228 86.83203125 125.26953125 C86.20683594 124.37621094 85.58164062 123.48289063 84.9375 122.5625 C80.0069261 117.33998422 74.81262907 112.80467965 69.07714844 108.4921875 C64.99725379 105.41408412 61.06845097 102.19981823 57.1875 98.875 C52.99088256 95.2861131 48.752186 91.78670101 44.3671875 88.4296875 C41.87352219 86.51333377 39.40451642 84.56822343 36.93701172 82.6184082 C31.17103613 78.06513645 25.35597997 73.59275319 19.4609375 69.20703125 C16.61502032 67.08152407 13.79428914 64.92444289 10.9765625 62.76171875 C-6.48596262 47.47671107 -6.48596262 47.47671107 -26.9375 38.125 C-30.32036738 38.59860143 -32.70380209 39.79719389 -35.6640625 41.453125 C-38.55117179 42.7885306 -41.40105101 43.35458158 -44.5 44.0625 C-51.45086012 46.08281921 -54.03166761 49.6396236 -57.94921875 55.51953125 C-63.13786756 62.9908019 -71.35828813 69.66109604 -80.0625 72.5625 C-86.08435646 73.39392002 -90.52718875 72.61341589 -95.5078125 69.04296875 C-97.0625 67.5625 -97.0625 67.5625 -98.4375 64.75 C-97.87005598 59.92672584 -95.10858662 57.21643798 -92.0625 53.5625 C-86.64420789 46.99530301 -84.20811912 39.82858462 -81.86157227 31.74511719 C-79.16236338 23.12952752 -74.1322771 19.45021573 -66.375 15.1875 C-58.01045625 10.44202942 -50.13379121 5.1571214 -42.5 -0.6875 C-27.32634249 -11.81046972 -15.2385671 -8.66293507 0 0 Z " fill="#434343" transform="translate(275.0625,93.4375)"/>
<path d="M0 0 C0.75884491 -0.00570007 1.51768982 -0.01140015 2.29953003 -0.01727295 C3.91191203 -0.02674138 5.52431354 -0.03326421 7.13671875 -0.03710938 C9.58629103 -0.04675336 12.0350021 -0.07773191 14.484375 -0.109375 C16.05207836 -0.11591119 17.61978772 -0.12115924 19.1875 -0.125 C19.91381622 -0.1373468 20.64013245 -0.1496936 21.38845825 -0.16241455 C27.82238239 -0.13471057 32.40999788 1.39252533 37.3671875 5.703125 C40.99809641 9.97478254 40.81441074 14.01259264 40.79296875 19.39453125 C40.35242205 23.50820756 38.868443 25.86151571 36.4921875 29.203125 C37.2759375 29.925 38.0596875 30.646875 38.8671875 31.390625 C43.54113075 36.39842133 43.88464776 40.92247292 43.7421875 47.546875 C43.29059494 52.34504591 41.59460464 55.10070786 38.2421875 58.453125 C32.37813539 62.18479453 26.44059262 62.4882292 19.71484375 62.3984375 C18.90349472 62.3956076 18.09214569 62.39277771 17.25621033 62.38986206 C14.68887997 62.37875163 12.12191072 62.35366471 9.5546875 62.328125 C7.80404153 62.31808336 6.05339004 62.30895959 4.30273438 62.30078125 C0.03241496 62.27884234 -4.23763775 62.2443766 -8.5078125 62.203125 C-9.83181988 58.23110286 -9.6504504 54.42563448 -9.640625 50.28515625 C-9.64158173 49.39511398 -9.64253845 48.50507172 -9.64352417 47.58805847 C-9.64420547 45.69583058 -9.64235467 43.80360037 -9.63818359 41.91137695 C-9.63291655 39.07172078 -9.63808707 36.23222882 -9.64453125 33.39257812 C-9.65360955 11.59867808 -9.65360955 11.59867808 -8.5078125 1.203125 C-6.5341758 -0.7705117 -2.69934128 0.01553482 0 0 Z M6.4921875 14.203125 C6.46529534 15.68219392 6.44584129 17.16139983 6.4296875 18.640625 C6.41808594 19.46433594 6.40648437 20.28804688 6.39453125 21.13671875 C6.25951402 23.19476438 6.25951402 23.19476438 7.4921875 24.203125 C9.59350671 24.32914554 11.69962538 24.3789172 13.8046875 24.390625 C15.53138672 24.41189453 15.53138672 24.41189453 17.29296875 24.43359375 C20.31630987 24.21579506 21.95784621 23.7863061 24.4921875 22.203125 C24.7424032 19.28678371 24.7424032 19.28678371 24.4921875 16.203125 C19.36225847 12.78317231 12.40035169 12.43067574 6.4921875 14.203125 Z M6.4921875 37.203125 C6.46529534 38.68219392 6.44584129 40.16139983 6.4296875 41.640625 C6.41808594 42.46433594 6.40648437 43.28804688 6.39453125 44.13671875 C6.25951402 46.19476438 6.25951402 46.19476438 7.4921875 47.203125 C10.46322763 47.35669765 13.39496303 47.43480621 16.3671875 47.453125 C17.19605469 47.47375 18.02492187 47.494375 18.87890625 47.515625 C19.67683594 47.52078125 20.47476563 47.5259375 21.296875 47.53125 C22.39491455 47.54526855 22.39491455 47.54526855 23.51513672 47.55957031 C26.05817645 47.10108204 26.95690204 46.24976596 28.4921875 44.203125 C28.49062526 41.61195187 28.49062526 41.61195187 27.4921875 39.203125 C24.39133179 37.13588786 23.76287069 36.95815077 20.26171875 37.0078125 C19.45927734 37.01425781 18.65683594 37.02070313 17.83007812 37.02734375 C16.99669922 37.04410156 16.16332031 37.06085938 15.3046875 37.078125 C14.0372168 37.09166016 14.0372168 37.09166016 12.74414062 37.10546875 C10.66003507 37.12901797 8.57607533 37.16488853 6.4921875 37.203125 Z " fill="#1C1C1D" transform="translate(126.5078125,344.796875)"/>
<path d="M0 0 C1.75 1.51171875 1.75 1.51171875 2.63671875 3.9140625 C2.77036882 6.97879676 2.22113961 8.21295876 0.5625 10.76171875 C0.13582031 11.4475 -0.29085937 12.13328125 -0.73046875 12.83984375 C-2.57207464 14.86608365 -3.5283245 15.32278443 -6.25 15.51171875 C-8.2578125 14.734375 -8.2578125 14.734375 -10.375 13.57421875 C-15.40196557 11.14019715 -19.75572673 11.09878798 -25.25 11.51171875 C-25.08411144 13.96374614 -25.08411144 13.96374614 -24.25 16.51171875 C-22.3867032 17.7733095 -22.3867032 17.7733095 -19.98828125 18.390625 C-19.11623047 18.67228516 -18.24417969 18.95394531 -17.34570312 19.24414062 C-16.42724609 19.51806641 -15.50878906 19.79199219 -14.5625 20.07421875 C-0.59053534 24.39100496 -0.59053534 24.39100496 3.625 30.01171875 C5.62710475 36.24048907 5.65345133 42.64193217 3.6875 48.88671875 C-0.38039016 54.39805381 -4.57079948 57.73550979 -11.25 59.51171875 C-22.93595937 60.58934614 -33.32384182 59.22108527 -42.88671875 52.20703125 C-44.25 50.51171875 -44.25 50.51171875 -44.6171875 48.05859375 C-43.99930697 43.77286919 -41.66472645 41.0765243 -38.25 38.51171875 C-33.85424446 38.27195027 -31.74377613 39.19221655 -28.0625 41.57421875 C-23.24301977 44.63613624 -17.74447677 43.83651541 -12.25 43.51171875 C-12.41775917 41.06503843 -12.41775917 41.06503843 -13.25 38.51171875 C-15.09070854 37.20785442 -15.09070854 37.20785442 -17.5 36.51171875 C-18.39589844 36.19074219 -19.29179687 35.86976563 -20.21484375 35.5390625 C-21.21644531 35.20003906 -22.21804687 34.86101562 -23.25 34.51171875 C-38.26048286 29.25371146 -38.26048286 29.25371146 -41.25 24.51171875 C-42.91545806 18.93456944 -44.08772814 13.15616947 -42.25 7.51171875 C-38.42279816 0.67742975 -33.9578841 -2.71971879 -26.57421875 -4.953125 C-17.16788274 -7.11895363 -8.33519778 -4.35571968 0 0 Z " fill="#1B1B1B" transform="translate(270.25,348.48828125)"/>
<path d="M0 0 C4.84225342 2.64122914 7.32463313 6.85768897 9 12 C9.25500379 16.76007084 8.07105035 19.24240102 5.0625 22.75 C3.71736017 24.17524056 2.36217071 25.59102776 1 27 C-0.67131981 28.8290924 -2.33775919 30.6626529 -4 32.5 C-4.85078125 33.43070312 -5.7015625 34.36140625 -6.578125 35.3203125 C-8.67572497 37.64120537 -10.72027043 39.99500737 -12.75 42.375 C-17.95064979 48.31859977 -22.61317144 52.58448705 -30.8359375 53.21875 C-36.56745557 53.38857276 -41.21080566 53.50428854 -46 50 C-49.53222546 46.38091653 -51.84616449 43.48707655 -52.375 38.375 C-52.26796598 34.17009224 -51.234049 31.18737495 -48.859375 27.71875 C-46.51438974 25.55111656 -44.5771831 25.0640696 -41.5 24.25 C-33.65526205 22.0842748 -29.20434171 17.1097874 -23.59033203 11.53515625 C-21.12401872 9.15441045 -18.52335623 6.98980473 -15.875 4.8125 C-14.57175781 3.73935547 -14.57175781 3.73935547 -13.2421875 2.64453125 C-9.18018773 -0.33474036 -4.8949782 -0.66226176 0 0 Z " fill="#3F3F3F" transform="translate(230,241)"/>
<path d="M0 0 C6.85542715 6.1243655 10.03265358 12.91129743 10.984375 21.984375 C11 24 11 24 10 27 C-5.345 27.495 -5.345 27.495 -21 28 C-16.75 33.25 -16.75 33.25 -12.5 33.5 C-8.83209574 32.97601368 -7.10002345 31.90770674 -4 30 C-1 29.4375 -1 29.4375 2 30 C4.96239452 32.71027583 6.81722501 34.50124511 7.3125 38.5625 C5.03197695 42.79775709 0.62697252 45.12981535 -3.875 46.62109375 C-12.22546035 48.11005451 -20.88290701 47.96250429 -28 43 C-33.35634478 38.17719737 -37.42081565 32.75655148 -38.3125 25.43359375 C-38.69070838 16.93572412 -36.38520338 10.69929513 -31.0625 4.125 C-23.42345941 -4.18750765 -9.74421569 -6.18026365 0 0 Z M-21 13 C-21.33 13.99 -21.66 14.98 -22 16 C-16.72 16 -11.44 16 -6 16 C-8.37005597 10.77301715 -8.37005597 10.77301715 -12.375 10 C-16.35865373 10 -17.95397167 10.49150608 -21 13 Z " fill="#1C1C1C" transform="translate(318,361)"/>
<path d="M0 0 C1.06877769 3.19923156 0.98867576 4.78950079 -0.40625 7.84375 C-0.73455811 8.5855249 -1.06286621 9.3272998 -1.40112305 10.09155273 C-1.76375244 10.88634033 -2.12638184 11.68112793 -2.5 12.5 C-5.53284938 19.39320379 -8.25919148 26.30875758 -10.6875 33.4375 C-18.57325182 56.27368886 -18.57325182 56.27368886 -23.640625 60.07421875 C-29.0514878 62.19735531 -35.33849017 61.80968378 -41 61 C-43.9609375 59.46484375 -43.9609375 59.46484375 -46 58 C-45.01 54.7 -44.02 51.4 -43 48 C-39.33418546 47.26683709 -36.63300168 46.89619995 -33 47 C-35.49867496 39.17475781 -38.46935471 31.57038516 -41.5 23.9375 C-42.92575747 20.33729748 -44.34877001 16.73604195 -45.765625 13.13232422 C-46.51752326 11.22432291 -47.27618345 9.318945 -48.046875 7.41845703 C-48.75532756 5.63404214 -49.38828628 3.81984831 -50 2 C-49.67 1.34 -49.34 0.68 -49 0 C-46.54159395 -0.02691685 -44.08348118 -0.04679802 -41.625 -0.0625 C-40.92632812 -0.07087891 -40.22765625 -0.07925781 -39.5078125 -0.08789062 C-34.2265625 -0.11328125 -34.2265625 -0.11328125 -32 1 C-31.13037109 3.10131836 -31.13037109 3.10131836 -30.2734375 5.83984375 C-29.809375 7.3103418 -29.809375 7.3103418 -29.3359375 8.81054688 C-29.01882812 9.84244141 -28.70171875 10.87433594 -28.375 11.9375 C-27.88773438 13.47954102 -27.88773438 13.47954102 -27.390625 15.05273438 C-25 22.70172991 -25 22.70172991 -25 25 C-24.34 25 -23.68 25 -23 25 C-22.82984375 24.34515625 -22.6596875 23.6903125 -22.484375 23.015625 C-17.23076923 3.23076923 -17.23076923 3.23076923 -14 0 C-9.3269555 -1.5576815 -4.76927195 -0.6753871 0 0 Z " fill="#1B1B1B" transform="translate(222,359)"/>
<path d="M0 0 C2.83695518 2.09328732 3.96322645 4.06031032 5.046875 7.375 C4.83889917 19.85354956 -3.25970828 31.00114471 -11.90234375 39.3828125 C-16.088824 42.83414372 -19.30992305 43.57752661 -24.6484375 43.4375 C-31.31309615 42.55767708 -37.68842437 38.16506316 -42.015625 33.125 C-43.17784423 29.77507398 -43.18926552 27.93532242 -42.453125 24.5 C-40.52467043 21.31385767 -38.2304559 19.93334238 -35.015625 18.125 C-34.355625 18.125 -33.695625 18.125 -33.015625 18.125 C-32.83 17.568125 -32.644375 17.01125 -32.453125 16.4375 C-30.74147861 13.68398189 -28.61326153 12.40006006 -25.953125 10.62109375 C-23.08972861 8.41004372 -20.94506526 5.70757102 -18.69140625 2.89453125 C-14.02774291 -2.03003634 -6.11616092 -2.65507761 0 0 Z " fill="#3F403F" transform="translate(180.015625,231.875)"/>
<path d="M0 0 C2.22918165 2.22918165 2.74705786 3.7368122 3.078125 6.84375 C2.69734444 17.35329339 -5.36983642 30.69184818 -12.1875 38.5078125 C-17.88588631 43.66657889 -22.69830775 45.29706252 -30.4375 45.375 C-31.71496094 45.40335937 -32.99242187 45.43171875 -34.30859375 45.4609375 C-38.63225 44.92105238 -40.74617732 43.87592774 -44 41 C-45.140625 38.49609375 -45.140625 38.49609375 -45 36 C-43.296875 34.03515625 -43.296875 34.03515625 -40.75 32.0625 C-36.3312 28.36160028 -32.85007048 24.52883852 -29.375 19.9375 C-10.3247738 -5.03001801 -10.3247738 -5.03001801 0 0 Z " fill="#3F3F3F" transform="translate(254,261)"/>
<path d="M0 0 C2.12493141 -0.02693575 4.24995912 -0.04636628 6.375 -0.0625 C7.55835938 -0.07410156 8.74171875 -0.08570313 9.9609375 -0.09765625 C13 0 13 0 15 1 C15.06943077 9.17960554 15.12277566 17.35908851 15.15543652 25.53891563 C15.17111006 29.33692183 15.19237859 33.13472681 15.22631836 36.93261719 C15.25885241 40.59602467 15.27684029 44.25923831 15.28463173 47.92277908 C15.29018603 49.3222827 15.30103199 50.72177539 15.31719017 52.12119675 C15.33888273 54.07727511 15.3402247 56.03354748 15.34057617 57.98974609 C15.34723801 59.1044931 15.35389984 60.21924011 15.36076355 61.36776733 C15.24171158 62.23640411 15.12265961 63.10504089 15 64 C10.72548692 66.84967539 7.10178167 66.27414544 2.125 65.625 C1.42375 65.41875 0.7225 65.2125 0 65 C-1.34649577 62.30700846 -1.12715928 60.22023961 -1.12939453 57.20507812 C-1.13254669 55.9904187 -1.13569885 54.77575928 -1.13894653 53.52429199 C-1.1369223 52.20658813 -1.13489807 50.88888428 -1.1328125 49.53125 C-1.13348588 48.17126447 -1.13445619 46.81127906 -1.13571167 45.45129395 C-1.13718703 42.59984187 -1.13503928 39.7484211 -1.13037109 36.89697266 C-1.12467389 33.23824827 -1.12795376 29.57959724 -1.13394356 25.92087555 C-1.13755354 23.11223801 -1.13640857 20.30361792 -1.13381577 17.49497986 C-1.13282231 15.48855543 -1.13586431 13.48213032 -1.13894653 11.47570801 C-1.13579437 10.26104858 -1.13264221 9.04638916 -1.12939453 7.79492188 C-1.12859894 6.72173706 -1.12780334 5.64855225 -1.12698364 4.54284668 C-1 2 -1 2 0 0 Z " fill="#1D1E1E" transform="translate(362,342)"/>
<path d="M0 0 C1.0725 -0.01675781 2.145 -0.03351563 3.25 -0.05078125 C4.1575 0.06910156 5.065 0.18898438 6 0.3125 C8.27260367 3.7214055 8.2485548 4.91355172 8.24291992 8.91381836 C8.24599655 10.06188461 8.24907318 11.20995087 8.25224304 12.39280701 C8.24505753 13.63345413 8.23787201 14.87410126 8.23046875 16.15234375 C8.22978142 18.06280235 8.22978142 18.06280235 8.2290802 20.01185608 C8.22605646 22.70782766 8.21923738 25.40345831 8.20581055 28.09936523 C8.18883797 31.55048937 8.18499585 35.00146715 8.18575573 38.45262814 C8.18541791 41.74838109 8.17657504 45.04410351 8.16796875 48.33984375 C8.16685593 49.57846664 8.1657431 50.81708954 8.16459656 52.09324646 C8.15821671 53.24446487 8.15183685 54.39568329 8.14526367 55.58178711 C8.13954597 57.10043617 8.13954597 57.10043617 8.13371277 58.64976501 C8.01424835 61.02876065 7.67986136 63.03877974 7 65.3125 C1.97278473 66.44362344 -1.98537403 66.24743027 -7 65.3125 C-8.34531059 62.62187882 -8.13456332 60.53018669 -8.14526367 57.51757812 C-8.15164352 56.3029187 -8.15802338 55.08825928 -8.16459656 53.83679199 C-8.16570938 52.51908813 -8.1668222 51.20138428 -8.16796875 49.84375 C-8.17118076 48.48376429 -8.17454478 47.12377892 -8.17805481 45.76379395 C-8.184046 42.91234536 -8.18589467 40.06092709 -8.18530273 37.20947266 C-8.185201 33.55069379 -8.19886501 29.89210849 -8.21607494 26.23337555 C-8.22717657 23.42473451 -8.22922253 20.61614059 -8.22869301 17.80747986 C-8.23045141 15.80104132 -8.24130197 13.79461748 -8.25224304 11.78820801 C-8.24916641 10.57354858 -8.24608978 9.35888916 -8.24291992 8.10742188 C-8.24434494 7.03423706 -8.24576996 5.96105225 -8.24723816 4.85534668 C-7.73591021 -0.40366586 -4.48918215 0.01618695 0 0 Z " fill="#202020" transform="translate(343,341.6875)"/>
<path d="M0 0 C6.26315387 0.26783224 11.30103442 2.06858525 17 4.5625 C18.16208984 5.0565332 18.16208984 5.0565332 19.34765625 5.56054688 C21.23563476 6.36468587 23.1183893 7.18107171 25 8 C24.71484375 10.38671875 24.71484375 10.38671875 24 13 C18.22327444 16.04590984 12.48592382 16.99783443 6 16 C2.14455202 14.00342873 0.40194908 12.60292362 -2 9 C-2.25 5.4375 -2.25 5.4375 -2 2 C-1.34 1.34 -0.68 0.68 0 0 Z " fill="#3B3A3B" transform="translate(108,234)"/>
<path d="M0 0 C1.0725 -0.01675781 2.145 -0.03351563 3.25 -0.05078125 C4.1575 0.06910156 5.065 0.18898438 6 0.3125 C8.234973 3.66495951 8.22779701 4.62224586 8.13525391 8.51831055 C8.11508209 9.57918381 8.09491028 10.64005707 8.0741272 11.733078 C8.04193085 12.87690445 8.0097345 14.0207309 7.9765625 15.19921875 C7.95153656 16.37136429 7.92651062 17.54350983 7.90072632 18.75117493 C7.81844615 22.50107395 7.72188629 26.25045265 7.625 30 C7.56676873 32.53969217 7.50946528 35.0794058 7.453125 37.61914062 C7.31285527 43.85054951 7.16085495 50.08159037 7 56.3125 C6.67 56.3125 6.34 56.3125 6 56.3125 C6 38.4925 6 20.6725 6 2.3125 C2.7 2.6425 -0.6 2.9725 -4 3.3125 C-4.33 22.7825 -4.66 42.2525 -5 62.3125 C-6.485 62.8075 -6.485 62.8075 -8 63.3125 C-8.04628946 55.39364422 -8.08185182 47.47484474 -8.10362434 39.55588722 C-8.11407274 35.8790065 -8.12825102 32.20221817 -8.15087891 28.52539062 C-8.17256991 24.97870345 -8.18456067 21.43210528 -8.18975449 17.8853569 C-8.193457 16.53052748 -8.20068689 15.17570306 -8.21146011 13.82091141 C-8.22592448 11.92704243 -8.22681649 10.03308436 -8.22705078 8.13916016 C-8.23371262 6.52033432 -8.23371262 6.52033432 -8.24050903 4.86880493 C-7.74455734 -0.40253039 -4.49753928 0.01621709 0 0 Z " fill="#0E0D0E" transform="translate(343,341.6875)"/>
<path d="M0 0 C5.72729096 0.42954682 9.39447802 2.84781971 14 6 C14.99 6.66 15.98 7.32 17 8 C16 11 16 11 13.8125 12.203125 C8.03116264 14.35506724 2.01682047 16.538966 -4 14 C-5.42578125 12.265625 -5.42578125 12.265625 -6 10 C-4.8828125 7.421875 -4.8828125 7.421875 -3.125 4.75 C-2.26261719 3.41195313 -2.26261719 3.41195313 -1.3828125 2.046875 C-0.92648438 1.37140625 -0.47015625 0.6959375 0 0 Z " fill="#373636" transform="translate(256,284)"/>
<path d="M0 0 C0 3.62453269 -0.92469613 5.07920195 -3 8 C-3.99 8.33 -4.98 8.66 -6 9 C-6.21462891 9.92039062 -6.21462891 9.92039062 -6.43359375 10.859375 C-7.20730157 13.78345698 -8.61793178 14.54268251 -11.0625 16.25 C-11.79597656 16.77078125 -12.52945313 17.2915625 -13.28515625 17.828125 C-13.85105469 18.21484375 -14.41695312 18.6015625 -15 19 C-14.34 21.31 -13.68 23.62 -13 26 C-14.9375 25.3125 -14.9375 25.3125 -17 24 C-17.90625 21.6796875 -17.90625 21.6796875 -18 19 C-16.19140625 16.89453125 -16.19140625 16.89453125 -13.5625 14.8125 C-8.26573459 10.37487144 -4.12619103 5.5207975 0 0 Z " fill="#272727" transform="translate(227,278)"/>
<path d="M0 0 C0.33 0.66 0.66 1.32 1 2 C-2.86402732 7.1141538 -6.10261682 9.90073808 -12.4375 11.6875 C-17.36881027 12.2888793 -21.68038535 12.76455338 -26 10 C-19.97403427 8.9287172 -14.11090483 8.90054585 -8 9 C-7.67 7.68 -7.34 6.36 -7 5 C-6.401875 4.9175 -5.80375 4.835 -5.1875 4.75 C-2.4033704 3.79544128 -1.56688858 2.42867729 0 0 Z " fill="#1E1D1D" transform="translate(331,261)"/>
<path d="M0 0 C-0.125 1.6875 -0.125 1.6875 -1 4 C-2.49075493 5.19908548 -3.98358865 6.39602973 -5.5 7.5625 C-8.02068426 9.97815575 -8.85041821 12.74285161 -10 16 C-10.33 16 -10.66 16 -11 16 C-11.21977786 12.1538875 -10.76732122 9.44162553 -9 6 C-8.01 5.34 -7.02 4.68 -6 4 C-6.33 3.01 -6.66 2.02 -7 1 C-4.50935112 0.31292445 -2.62113708 0 0 0 Z " fill="#2E2E2E" transform="translate(201,106)"/>
<path d="M0 0 C0.33 0 0.66 0 1 0 C1 1.98 1 3.96 1 6 C-1.71401294 7.35700647 -3.84846316 7.1123861 -6.8828125 7.09765625 C-8.04941406 7.09443359 -9.21601563 7.09121094 -10.41796875 7.08789062 C-11.64128906 7.07951172 -12.86460937 7.07113281 -14.125 7.0625 C-15.35605469 7.05798828 -16.58710938 7.05347656 -17.85546875 7.04882812 C-20.90369392 7.0370133 -23.95182314 7.02054028 -27 7 C-27 6.67 -27 6.34 -27 6 C-18.75 6 -10.5 6 -2 6 C-1.34 4.02 -0.68 2.04 0 0 Z " fill="#1F1F1F" transform="translate(392,214)"/>
<path d="M0 0 C1.50433594 0.01353516 1.50433594 0.01353516 3.0390625 0.02734375 C3.80992187 0.03894531 4.58078125 0.05054688 5.375 0.0625 C5.375 0.3925 5.375 0.7225 5.375 1.0625 C4.32699219 1.11857422 4.32699219 1.11857422 3.2578125 1.17578125 C1.89269531 1.27439453 1.89269531 1.27439453 0.5 1.375 C-0.85738281 1.46201172 -0.85738281 1.46201172 -2.2421875 1.55078125 C-4.98721601 1.8507039 -4.98721601 1.8507039 -6.625 5.0625 C-8.87304497 6.6955138 -11.11869445 7.80934722 -13.625 9.0625 C-14.285 8.7325 -14.945 8.4025 -15.625 8.0625 C-14.33564081 6.91407077 -13.04343421 5.76883773 -11.75 4.625 C-10.67105469 3.66787109 -10.67105469 3.66787109 -9.5703125 2.69140625 C-6.27380166 -0.06892512 -4.23391325 -0.04923155 0 0 Z " fill="#2B2A2A" transform="translate(172.625,230.9375)"/>
<path d="M0 0 C5.75 0.875 5.75 0.875 8 2 C7.67 3.65 7.34 5.3 7 7 C4.69 7.66 2.38 8.32 0 9 C0 8.34 0 7.68 0 7 C0.99 6.67 1.98 6.34 3 6 C3.73323796 3.98491642 3.73323796 3.98491642 4 2 C2.68 1.34 1.36 0.68 0 0 Z " fill="#303030" transform="translate(125,240)"/>
<path d="M0 0 C0.66 0 1.32 0 2 0 C2.8125 2 2.8125 2 3 5 C1.71065717 7.95659648 0.17220152 10.61001992 -2 13 C-4.17578125 13.734375 -4.17578125 13.734375 -6 14 C-5.67 13.34 -5.34 12.68 -5 12 C-4.34 12 -3.68 12 -3 12 C-2.87625 11.443125 -2.7525 10.88625 -2.625 10.3125 C-2 8 -2 8 -0.9375 5.4375 C0.17948954 2.96858933 0.17948954 2.96858933 0 0 Z " fill="#0A0A0A" transform="translate(270,350)"/>
<path d="M0 0 C0 3 0 3 -2.375 6.125 C-6.33209642 9.96794941 -10.70046813 9.97905323 -16 10 C-13.72360311 8.85203161 -11.4450162 7.74663783 -9.125 6.6875 C-5.61087299 4.78987142 -2.98971796 2.63379915 0 0 Z " fill="#1E1E1E" transform="translate(202,257)"/>
<path d="M0 0 C-4.67201205 1.20568053 -9.21496292 1.09382426 -14 1 C-14.33 0.34 -14.66 -0.32 -15 -1 C-9.90848331 -2.62928534 -4.61112076 -2.95111729 0 0 Z " fill="#1F1F1F" transform="translate(260,87)"/>
<path d="M0 0 C6.57315478 -0.36517527 11.79485526 0.86380263 18 3 C17.01 3.66 16.02 4.32 15 5 C12.1524013 4.24451463 9.63227284 3.31613642 7 2 C4.6670134 1.95977609 2.33293334 1.95679753 0 2 C0 1.34 0 0.68 0 0 Z " fill="#292929" transform="translate(99,110)"/>
<path d="M0 0 C0.66 0.33 1.32 0.66 2 1 C-3 6 -3 6 -4.6875 7.5625 C-6.2141682 9.23456517 -7.07757479 10.94228223 -8 13 C-8.33 12.01 -8.66 11.02 -9 10 C-6.62294981 5.70302465 -3.96618775 2.86446893 0 0 Z " fill="#0B0B0B" transform="translate(237,346)"/>
<path d="M0 0 C0.66 0.33 1.32 0.66 2 1 C-1.07881696 4.87051275 -4.00073014 8.02911382 -8 11 C-8.66 10.67 -9.32 10.34 -10 10 C-6.7 6.7 -3.4 3.4 0 0 Z " fill="#202020" transform="translate(238,266)"/>
<path d="M0 0 C0.7425 0.495 0.7425 0.495 1.5 1 C5.09090894 2.43636358 8.14456127 2.12851462 12 2 C11.67 2.66 11.34 3.32 11 4 C8.16064556 4.59534851 5.85550201 5.0573394 3 5 C1 3.6875 1 3.6875 0 2 C0 1.34 0 0.68 0 0 Z " fill="#262626" transform="translate(328,123)"/>
<path d="M0 0 C0 3 0 3 -1.125 4.875 C-2.29926298 7.07976092 -2.29926298 7.07976092 -1.125 9.75 C-0.75375 10.4925 -0.3825 11.235 0 12 C-1.9375 11.3125 -1.9375 11.3125 -4 10 C-5.0625 7.6875 -5.0625 7.6875 -5 5 C-2.5625 2.1875 -2.5625 2.1875 0 0 Z " fill="#1C1C1C" transform="translate(214,292)"/>
<path d="M0 0 C0.66 0.33 1.32 0.66 2 1 C-0.36039038 3.7330836 -2.52395748 5.00684499 -6 6 C-8.8125 5.625 -8.8125 5.625 -11 5 C-7.41161963 3.13404221 -3.77010767 1.46615298 0 0 Z " fill="#222222" transform="translate(204,166)"/>
<path d="M0 0 C1.32 0.33 2.64 0.66 4 1 C4 1.66 4 2.32 4 3 C4.66 3.33 5.32 3.66 6 4 C4.35 4.33 2.7 4.66 1 5 C0.67 3.35 0.34 1.7 0 0 Z " fill="#3D3C3D" transform="translate(265,289)"/>
<path d="M0 0 C0.66 0.33 1.32 0.66 2 1 C1.38125 1.721875 0.7625 2.44375 0.125 3.1875 C-1.83666353 5.78381938 -2.95316 7.94671666 -4 11 C-4.33 11 -4.66 11 -5 11 C-5.218934 7.16865501 -4.80266269 4.41557141 -3 1 C-2.01 0.67 -1.02 0.34 0 0 Z " fill="#1F1F1F" transform="translate(195,111)"/>
<path d="M0 0 C0.75 1.625 0.75 1.625 1 4 C-0.9375 7.25 -0.9375 7.25 -3 10 C-3.75 8.375 -3.75 8.375 -4 6 C-2.0625 2.75 -2.0625 2.75 0 0 Z " fill="#1F1F1F" transform="translate(181,149)"/>
<path d="M0 0 C0.99 0.33 1.98 0.66 3 1 C0.03 3.475 0.03 3.475 -3 6 C-3.33 5.01 -3.66 4.02 -4 3 C-2.1875 1.4375 -2.1875 1.4375 0 0 Z " fill="#2A2A2A" transform="translate(204,246)"/>
<path d="M0 0 C3.53372712 1.96318174 6.24479785 4.04070881 9 7 C6.61435923 6.42415568 4.33317216 5.77772405 2 5 C2 4.01 2 3.02 2 2 C1.34 2 0.68 2 0 2 C0 1.34 0 0.68 0 0 Z " fill="#303030" transform="translate(334,200)"/>
<path d="M0 0 C1.77706209 2.66559313 2.87548273 5.0280615 4 8 C2.0625 7.6875 2.0625 7.6875 0 7 C-1.04449911 3.86650268 -0.93423645 3.01031744 0 0 Z " fill="#373737" transform="translate(171,156)"/>
</svg>
