<?xml version="1.0" encoding="UTF-8"?>
<svg version="1.1" xmlns="http://www.w3.org/2000/svg" width="341" height="266">
<path d="M0 0 C-0.125 1.6875 -0.125 1.6875 -1 4 C-1.928125 4.70125 -2.85625 5.4025 -3.8125 6.125 C-8.72077377 9.97899062 -10.19812711 15.89384402 -11.7109375 21.75390625 C-13.87917133 29.64327191 -17.71389375 35.15252511 -22.84765625 41.39306641 C-25.92439416 45.19976421 -27.86668808 47.90452208 -28 53 C-26.14565102 57.58133278 -23.24970174 59.62997403 -19 62 C-12.81315286 64.40599611 -7.7618954 64.37750849 -1.62109375 62.12890625 C8.7698407 57.42940694 17.39025757 48.89337059 23.6953125 39.46484375 C26.58604951 36.37322502 29.54243648 35.43060775 33.5 34.3125 C38.42549813 32.94103117 38.42549813 32.94103117 43.03125 30.79296875 C46.22204482 29.5077875 48.71042328 30.24778825 52 31 C63.88488822 36.94244411 74.5196387 46.92050132 85 55 C86.20269702 55.92243328 87.40575934 56.84439071 88.609375 57.765625 C97.0470453 64.23307787 105.43609651 70.76349959 113.81933594 77.30126953 C115.8589568 78.89012779 117.90177704 80.47477585 119.9453125 82.05859375 C125.71130451 86.54104706 131.32032945 91.11010467 136.71875 96.03515625 C139.42021356 98.36193051 142.25090804 100.45317261 145.125 102.5625 C159.04756735 112.8623585 159.04756735 112.8623585 160.40625 120.19140625 C160.69571226 127.51238929 158.46041841 133.18500767 154 139 C151.66999681 141.04140534 150.05151546 141.95605755 146.93188477 142.08642578 C141.57927562 141.69289352 137.33374902 140.08578394 132.75 137.3125 C132.08597168 136.92457275 131.42194336 136.53664551 130.73779297 136.13696289 C90.82403686 112.41222626 90.82403686 112.41222626 84.1875 95.125 C83.87619141 94.34125 83.56488281 93.5575 83.24414062 92.75 C82.48605158 90.83728302 81.74159544 88.91917207 81 87 C80.01 87 79.02 87 78 87 C78.90610626 89.71227806 79.82439254 92.41937819 80.75 95.125 C81.00265625 95.88554688 81.2553125 96.64609375 81.515625 97.4296875 C88.46340993 117.57826379 110.86121966 128.13333698 128.0390625 138.66796875 C129.98582378 139.99037034 131.52430752 141.16460747 133 143 C133.59343361 148.83543046 132.98618377 153.87477678 130 159 C124.8506625 165.15740887 119.21073471 166.62404154 111.5 167.3125 C104.01245788 166.64396945 98.21961659 163.15442623 92.16796875 158.9921875 C91.45071121 158.50726837 90.73345367 158.02234924 89.99446106 157.5227356 C88.48506734 156.49959055 86.97840033 155.47241238 85.47436523 154.44140625 C83.21044261 152.89071472 80.93717457 151.35459577 78.66210938 149.8203125 C71.13282296 144.71196653 63.88840176 139.50610719 56.99731445 133.55126953 C55.15823773 131.79553363 55.15823773 131.79553363 53 132 C53.84161092 137.75100797 58.66551476 140.6102921 63 144 C65.66651551 145.82403967 68.37639281 147.5392573 71.12890625 149.23046875 C75.06546314 151.6566732 78.89340761 154.23091885 82.71875 156.828125 C85.15459232 158.44042063 87.5946793 159.97703589 90.09375 161.484375 C90.7837207 161.91258545 91.47369141 162.3407959 92.18457031 162.78198242 C93.53623039 163.61997971 94.9000145 164.43880357 96.27636719 165.2355957 C98.140625 166.41015625 98.140625 166.41015625 101 169 C101.60209556 172.66876892 101.60368705 174.82473691 99.8984375 178.14453125 C96.5546441 181.80555633 94.08218363 184.20279472 89 185 C81.15691799 185.23911835 74.02292077 182.19384085 67 179 C66.13890625 178.63648438 65.2778125 178.27296875 64.390625 177.8984375 C61.79129547 176.46972801 60.52289377 175.56703352 59 173 C58.71757174 169.54206428 58.67124474 166.35532124 59.0300293 162.9128418 C59.37683592 158.92002128 59.13607614 156.63018436 56.63671875 153.5625 C54.28084392 151.01431592 54.28084392 151.01431592 52 150 C51.35546875 150.03480469 50.7109375 150.06960937 50.046875 150.10546875 C47.31271811 150.20311721 45.54042109 150.0599392 43 149 C41.02233971 146.10855471 39.72036452 143.18095999 38.33984375 139.96484375 C36.68977839 136.31353294 35.12146553 134.44655406 32 132 C26.89747564 130.29915855 22.11603742 130.21496199 17.1875 132.375 C11.38069266 135.58072272 6.78194467 140.4755982 2 145 C0.52877738 146.32139861 -0.94943527 147.63509698 -2.4375 148.9375 C-3.03433594 149.46214844 -3.63117188 149.98679688 -4.24609375 150.52734375 C-4.82488281 151.01332031 -5.40367188 151.49929687 -6 152 C-6.98419922 152.83144531 -6.98419922 152.83144531 -7.98828125 153.6796875 C-10.94953007 155.62318672 -13.55013942 155.19903042 -17 155 C-16.63194656 151.31946557 -16.31286991 148.53813624 -14.4375 145.3125 C-12.23881173 140.24595747 -12.09143999 135.42955464 -13 130 C-15.30132217 125.68781379 -18.45466849 122.80021194 -23 121 C-28.71213335 119.98605763 -33.87857349 119.65623927 -38.8984375 122.8359375 C-41.42059079 125.11572171 -43.72950833 127.47111282 -46 130 C-46.99412126 131.00584438 -47.99270635 132.00734724 -49 133 C-49.66 133.66 -50.32 134.32 -51 135 C-53.78973238 136.39486619 -55.90212434 136.18341436 -59 136 C-61.5 135.16479492 -61.5 135.16479492 -64 133.98046875 C-64.95543701 133.54025391 -65.91087402 133.10003906 -66.89526367 132.64648438 C-67.91982666 132.16501953 -68.94438965 131.68355469 -70 131.1875 C-81.17820979 126.08340181 -92.50136355 121.73087039 -104.07226562 117.61791992 C-105.88307617 116.97173706 -105.88307617 116.97173706 -107.73046875 116.3125 C-108.79676514 115.93738281 -109.86306152 115.56226563 -110.96166992 115.17578125 C-118.89382619 112.10617381 -118.89382619 112.10617381 -122 109 C-130.09244869 74.08258249 -117.56374272 35.12748544 -102 4 C-94.58882901 3.51135136 -88.27380547 5.32594781 -81.1875 7.375 C-53.59829008 15.24392248 -35.73211492 10.93024625 -9.08032227 1.67675781 C-5.92148061 0.64914262 -3.34242918 0 0 0 Z " fill="#434343" transform="translate(132,31)"/>
<path d="M0 0 C8.02257624 4.47833946 16.12717585 8.70216041 24.375 12.75 C34.55219261 17.76651295 44.86596001 22.88837794 53.890625 29.8359375 C57.76961864 32.03403389 59.67346875 31.80935453 64.0625 31.1875 C64.76681152 31.09098145 65.47112305 30.99446289 66.19677734 30.89501953 C74.9518579 29.58935703 83.60434041 27.57579567 92.22705078 25.59619141 C104.24638433 22.87771231 104.24638433 22.87771231 108.9375 23.5625 C117.4119963 30.78812316 119.61992142 45.16056384 120.9375 55.5625 C121.10572266 56.76519531 121.10572266 56.76519531 121.27734375 57.9921875 C123.31245202 75.44393789 121.85549747 93.17774443 119.9375 110.5625 C119.85209961 111.38733887 119.76669922 112.21217773 119.67871094 113.06201172 C118.65062821 122.98200211 118.65062821 122.98200211 117.9375 126.5625 C113.60589947 128.72830027 107.88275856 127.88131606 103.125 127.9375 C101.93583984 127.97488281 100.74667969 128.01226562 99.52148438 128.05078125 C90.71928469 128.13974228 90.71928469 128.13974228 86.83203125 125.26953125 C86.20683594 124.37621094 85.58164062 123.48289063 84.9375 122.5625 C80.0069261 117.33998422 74.81262907 112.80467965 69.07714844 108.4921875 C64.99725379 105.41408412 61.06845097 102.19981823 57.1875 98.875 C52.99088256 95.2861131 48.752186 91.78670101 44.3671875 88.4296875 C41.87352219 86.51333377 39.40451642 84.56822343 36.93701172 82.6184082 C31.17103613 78.06513645 25.35597997 73.59275319 19.4609375 69.20703125 C16.61502032 67.08152407 13.79428914 64.92444289 10.9765625 62.76171875 C-6.48596262 47.47671107 -6.48596262 47.47671107 -26.9375 38.125 C-30.32036738 38.59860143 -32.70380209 39.79719389 -35.6640625 41.453125 C-38.55117179 42.7885306 -41.40105101 43.35458158 -44.5 44.0625 C-51.45086012 46.08281921 -54.03166761 49.6396236 -57.94921875 55.51953125 C-63.13786756 62.9908019 -71.35828813 69.66109604 -80.0625 72.5625 C-86.08435646 73.39392002 -90.52718875 72.61341589 -95.5078125 69.04296875 C-97.0625 67.5625 -97.0625 67.5625 -98.4375 64.75 C-97.87005598 59.92672584 -95.10858662 57.21643798 -92.0625 53.5625 C-86.64420789 46.99530301 -84.20811912 39.82858462 -81.86157227 31.74511719 C-79.16236338 23.12952752 -74.1322771 19.45021573 -66.375 15.1875 C-58.01045625 10.44202942 -50.13379121 5.1571214 -42.5 -0.6875 C-27.32634249 -11.81046972 -15.2385671 -8.66293507 0 0 Z " fill="#434343" transform="translate(206.0625,18.4375)"/>
<path d="M0 0 C4.84225342 2.64122914 7.32463313 6.85768897 9 12 C9.25500379 16.76007084 8.07105035 19.24240102 5.0625 22.75 C3.71736017 24.17524056 2.36217071 25.59102776 1 27 C-0.67131981 28.8290924 -2.33775919 30.6626529 -4 32.5 C-4.85078125 33.43070313 -5.7015625 34.36140625 -6.578125 35.3203125 C-8.67572497 37.64120537 -10.72027043 39.99500737 -12.75 42.375 C-17.95064979 48.31859977 -22.61317144 52.58448705 -30.8359375 53.21875 C-36.56745557 53.38857276 -41.21080566 53.50428854 -46 50 C-49.53222546 46.38091653 -51.84616449 43.48707655 -52.375 38.375 C-52.26796598 34.17009224 -51.234049 31.18737495 -48.859375 27.71875 C-46.51438974 25.55111656 -44.5771831 25.0640696 -41.5 24.25 C-33.65526205 22.0842748 -29.20434171 17.1097874 -23.59033203 11.53515625 C-21.12401872 9.15441045 -18.52335623 6.98980473 -15.875 4.8125 C-14.57175781 3.73935547 -14.57175781 3.73935547 -13.2421875 2.64453125 C-9.18018773 -0.33474036 -4.8949782 -0.66226176 0 0 Z " fill="#3F3F3F" transform="translate(161,166)"/>
<path d="M0 0 C2.83695518 2.09328732 3.96322645 4.06031032 5.046875 7.375 C4.83889917 19.85354956 -3.25970828 31.00114471 -11.90234375 39.3828125 C-16.088824 42.83414372 -19.30992305 43.57752661 -24.6484375 43.4375 C-31.31309615 42.55767708 -37.68842437 38.16506316 -42.015625 33.125 C-43.17784423 29.77507398 -43.18926552 27.93532242 -42.453125 24.5 C-40.52467043 21.31385767 -38.2304559 19.93334238 -35.015625 18.125 C-34.355625 18.125 -33.695625 18.125 -33.015625 18.125 C-32.83 17.568125 -32.644375 17.01125 -32.453125 16.4375 C-30.74147861 13.68398189 -28.61326153 12.40006006 -25.953125 10.62109375 C-23.08972861 8.41004372 -20.94506526 5.70757102 -18.69140625 2.89453125 C-14.02774291 -2.03003634 -6.11616092 -2.65507761 0 0 Z " fill="#3F403F" transform="translate(111.015625,156.875)"/>
<path d="M0 0 C2.22918165 2.22918165 2.74705786 3.7368122 3.078125 6.84375 C2.69734444 17.35329339 -5.36983642 30.69184818 -12.1875 38.5078125 C-17.88588631 43.66657889 -22.69830775 45.29706252 -30.4375 45.375 C-31.71496094 45.40335938 -32.99242187 45.43171875 -34.30859375 45.4609375 C-38.63225 44.92105238 -40.74617732 43.87592774 -44 41 C-45.140625 38.49609375 -45.140625 38.49609375 -45 36 C-43.296875 34.03515625 -43.296875 34.03515625 -40.75 32.0625 C-36.3312 28.36160028 -32.85007048 24.52883852 -29.375 19.9375 C-10.3247738 -5.03001801 -10.3247738 -5.03001801 0 0 Z " fill="#3F3F3F" transform="translate(185,186)"/>
<path d="M0 0 C6.26315387 0.26783224 11.30103442 2.06858525 17 4.5625 C18.16208984 5.0565332 18.16208984 5.0565332 19.34765625 5.56054688 C21.23563476 6.36468587 23.1183893 7.18107171 25 8 C24.71484375 10.38671875 24.71484375 10.38671875 24 13 C18.22327444 16.04590984 12.48592382 16.99783443 6 16 C2.14455202 14.00342873 0.40194908 12.60292362 -2 9 C-2.25 5.4375 -2.25 5.4375 -2 2 C-1.34 1.34 -0.68 0.68 0 0 Z " fill="#3B3A3B" transform="translate(39,159)"/>
<path d="M0 0 C5.72729096 0.42954682 9.39447802 2.84781971 14 6 C14.99 6.66 15.98 7.32 17 8 C16 11 16 11 13.8125 12.203125 C8.03116264 14.35506724 2.01682047 16.538966 -4 14 C-5.42578125 12.265625 -5.42578125 12.265625 -6 10 C-4.8828125 7.421875 -4.8828125 7.421875 -3.125 4.75 C-2.26261719 3.41195312 -2.26261719 3.41195312 -1.3828125 2.046875 C-0.92648438 1.37140625 -0.47015625 0.6959375 0 0 Z " fill="#373636" transform="translate(187,209)"/>
<path d="M0 0 C0 3.62453269 -0.92469613 5.07920195 -3 8 C-3.99 8.33 -4.98 8.66 -6 9 C-6.21462891 9.92039063 -6.21462891 9.92039063 -6.43359375 10.859375 C-7.20730157 13.78345698 -8.61793178 14.54268251 -11.0625 16.25 C-11.79597656 16.77078125 -12.52945313 17.2915625 -13.28515625 17.828125 C-13.85105469 18.21484375 -14.41695312 18.6015625 -15 19 C-14.34 21.31 -13.68 23.62 -13 26 C-14.9375 25.3125 -14.9375 25.3125 -17 24 C-17.90625 21.6796875 -17.90625 21.6796875 -18 19 C-16.19140625 16.89453125 -16.19140625 16.89453125 -13.5625 14.8125 C-8.26573459 10.37487144 -4.12619103 5.5207975 0 0 Z " fill="#272727" transform="translate(158,203)"/>
<path d="M0 0 C0.33 0.66 0.66 1.32 1 2 C-2.86402732 7.1141538 -6.10261682 9.90073808 -12.4375 11.6875 C-17.36881027 12.2888793 -21.68038535 12.76455338 -26 10 C-19.97403427 8.9287172 -14.11090483 8.90054585 -8 9 C-7.67 7.68 -7.34 6.36 -7 5 C-6.401875 4.9175 -5.80375 4.835 -5.1875 4.75 C-2.4033704 3.79544128 -1.56688858 2.42867729 0 0 Z " fill="#1E1D1D" transform="translate(262,186)"/>
<path d="M0 0 C-0.125 1.6875 -0.125 1.6875 -1 4 C-2.49075493 5.19908548 -3.98358865 6.39602973 -5.5 7.5625 C-8.02068426 9.97815575 -8.85041821 12.74285161 -10 16 C-10.33 16 -10.66 16 -11 16 C-11.21977786 12.1538875 -10.76732122 9.44162553 -9 6 C-8.01 5.34 -7.02 4.68 -6 4 C-6.33 3.01 -6.66 2.02 -7 1 C-4.50935112 0.31292445 -2.62113708 0 0 0 Z " fill="#2E2E2E" transform="translate(132,31)"/>
<path d="M0 0 C0.33 0 0.66 0 1 0 C1 1.98 1 3.96 1 6 C-1.71401294 7.35700647 -3.84846316 7.1123861 -6.8828125 7.09765625 C-8.04941406 7.09443359 -9.21601563 7.09121094 -10.41796875 7.08789062 C-11.64128906 7.07951172 -12.86460937 7.07113281 -14.125 7.0625 C-15.35605469 7.05798828 -16.58710938 7.05347656 -17.85546875 7.04882812 C-20.90369392 7.0370133 -23.95182314 7.02054028 -27 7 C-27 6.67 -27 6.34 -27 6 C-18.75 6 -10.5 6 -2 6 C-1.34 4.02 -0.68 2.04 0 0 Z " fill="#1F1F1F" transform="translate(323,139)"/>
<path d="M0 0 C1.50433594 0.01353516 1.50433594 0.01353516 3.0390625 0.02734375 C3.80992188 0.03894531 4.58078125 0.05054688 5.375 0.0625 C5.375 0.3925 5.375 0.7225 5.375 1.0625 C4.32699219 1.11857422 4.32699219 1.11857422 3.2578125 1.17578125 C1.89269531 1.27439453 1.89269531 1.27439453 0.5 1.375 C-0.85738281 1.46201172 -0.85738281 1.46201172 -2.2421875 1.55078125 C-4.98721601 1.8507039 -4.98721601 1.8507039 -6.625 5.0625 C-8.87304497 6.6955138 -11.11869445 7.80934722 -13.625 9.0625 C-14.285 8.7325 -14.945 8.4025 -15.625 8.0625 C-14.33564081 6.91407077 -13.04343421 5.76883773 -11.75 4.625 C-10.67105469 3.66787109 -10.67105469 3.66787109 -9.5703125 2.69140625 C-6.27380166 -0.06892512 -4.23391325 -0.04923155 0 0 Z " fill="#2B2A2A" transform="translate(103.625,155.9375)"/>
<path d="M0 0 C5.75 0.875 5.75 0.875 8 2 C7.67 3.65 7.34 5.3 7 7 C4.69 7.66 2.38 8.32 0 9 C0 8.34 0 7.68 0 7 C0.99 6.67 1.98 6.34 3 6 C3.73323796 3.98491642 3.73323796 3.98491642 4 2 C2.68 1.34 1.36 0.68 0 0 Z " fill="#303030" transform="translate(56,165)"/>
<path d="M0 0 C0 3 0 3 -2.375 6.125 C-6.33209642 9.96794941 -10.70046813 9.97905323 -16 10 C-13.72360311 8.85203161 -11.4450162 7.74663783 -9.125 6.6875 C-5.61087299 4.78987142 -2.98971796 2.63379915 0 0 Z " fill="#1E1E1E" transform="translate(133,182)"/>
<path d="M0 0 C-4.67201205 1.20568053 -9.21496292 1.09382426 -14 1 C-14.33 0.34 -14.66 -0.32 -15 -1 C-9.90848331 -2.62928534 -4.61112076 -2.95111729 0 0 Z " fill="#1F1F1F" transform="translate(191,12)"/>
<path d="M0 0 C6.57315478 -0.36517527 11.79485526 0.86380263 18 3 C17.01 3.66 16.02 4.32 15 5 C12.1524013 4.24451463 9.63227284 3.31613642 7 2 C4.6670134 1.95977609 2.33293334 1.95679753 0 2 C0 1.34 0 0.68 0 0 Z " fill="#292929" transform="translate(30,35)"/>
<path d="M0 0 C0.66 0.33 1.32 0.66 2 1 C-1.07881696 4.87051275 -4.00073014 8.02911382 -8 11 C-8.66 10.67 -9.32 10.34 -10 10 C-6.7 6.7 -3.4 3.4 0 0 Z " fill="#202020" transform="translate(169,191)"/>
<path d="M0 0 C0.7425 0.495 0.7425 0.495 1.5 1 C5.09090894 2.43636358 8.14456127 2.12851462 12 2 C11.67 2.66 11.34 3.32 11 4 C8.16064556 4.59534851 5.85550201 5.0573394 3 5 C1 3.6875 1 3.6875 0 2 C0 1.34 0 0.68 0 0 Z " fill="#262626" transform="translate(259,48)"/>
<path d="M0 0 C0 3 0 3 -1.125 4.875 C-2.29926298 7.07976092 -2.29926298 7.07976092 -1.125 9.75 C-0.75375 10.4925 -0.3825 11.235 0 12 C-1.9375 11.3125 -1.9375 11.3125 -4 10 C-5.0625 7.6875 -5.0625 7.6875 -5 5 C-2.5625 2.1875 -2.5625 2.1875 0 0 Z " fill="#1C1C1C" transform="translate(145,217)"/>
<path d="M0 0 C0.66 0.33 1.32 0.66 2 1 C-0.36039038 3.7330836 -2.52395748 5.00684499 -6 6 C-8.8125 5.625 -8.8125 5.625 -11 5 C-7.41161963 3.13404221 -3.77010767 1.46615298 0 0 Z " fill="#222222" transform="translate(135,91)"/>
<path d="M0 0 C1.32 0.33 2.64 0.66 4 1 C4 1.66 4 2.32 4 3 C4.66 3.33 5.32 3.66 6 4 C4.35 4.33 2.7 4.66 1 5 C0.67 3.35 0.34 1.7 0 0 Z " fill="#3D3C3D" transform="translate(196,214)"/>
<path d="M0 0 C0.66 0.33 1.32 0.66 2 1 C1.38125 1.721875 0.7625 2.44375 0.125 3.1875 C-1.83666353 5.78381938 -2.95316 7.94671666 -4 11 C-4.33 11 -4.66 11 -5 11 C-5.218934 7.16865501 -4.80266269 4.41557141 -3 1 C-2.01 0.67 -1.02 0.34 0 0 Z " fill="#1F1F1F" transform="translate(126,36)"/>
<path d="M0 0 C0.75 1.625 0.75 1.625 1 4 C-0.9375 7.25 -0.9375 7.25 -3 10 C-3.75 8.375 -3.75 8.375 -4 6 C-2.0625 2.75 -2.0625 2.75 0 0 Z " fill="#1F1F1F" transform="translate(112,74)"/>
<path d="M0 0 C0.99 0.33 1.98 0.66 3 1 C0.03 3.475 0.03 3.475 -3 6 C-3.33 5.01 -3.66 4.02 -4 3 C-2.1875 1.4375 -2.1875 1.4375 0 0 Z " fill="#2A2A2A" transform="translate(135,171)"/>
<path d="M0 0 C3.53372712 1.96318174 6.24479785 4.04070881 9 7 C6.61435923 6.42415568 4.33317216 5.77772405 2 5 C2 4.01 2 3.02 2 2 C1.34 2 0.68 2 0 2 C0 1.34 0 0.68 0 0 Z " fill="#303030" transform="translate(265,125)"/>
<path d="M0 0 C1.77706209 2.66559313 2.87548273 5.0280615 4 8 C2.0625 7.6875 2.0625 7.6875 0 7 C-1.04449911 3.86650268 -0.93423645 3.01031744 0 0 Z " fill="#373737" transform="translate(102,81)"/>
</svg>
